<?xml version="1.0" encoding="UTF-8" standalone="no"?>
<!-- Created with Inkscape (http://www.inkscape.org/) -->

<svg
   xmlns:dc="http://purl.org/dc/elements/1.1/"
   xmlns:cc="http://creativecommons.org/ns#"
   xmlns:rdf="http://www.w3.org/1999/02/22-rdf-syntax-ns#"
   xmlns:svg="http://www.w3.org/2000/svg"
   xmlns="http://www.w3.org/2000/svg"
   xmlns:sodipodi="http://sodipodi.sourceforge.net/DTD/sodipodi-0.dtd"
   xmlns:inkscape="http://www.inkscape.org/namespaces/inkscape"
   version="1.1"
   id="svg2"
   xml:space="preserve"
   width="2589.3333"
   height="688"
   viewBox="0 0 2589.3333 688"
   sodipodi:docname="b-it-dark-blue.svg"
   inkscape:version="0.92.5 (2060ec1f9f, 2020-04-08)"><metadata
     id="metadata8"><rdf:RDF><cc:Work
         rdf:about=""><dc:format>image/svg+xml</dc:format><dc:type
           rdf:resource="http://purl.org/dc/dcmitype/StillImage" /><dc:title></dc:title></cc:Work></rdf:RDF></metadata><defs
     id="defs6" /><sodipodi:namedview
     pagecolor="#ffffff"
     bordercolor="#666666"
     borderopacity="1"
     objecttolerance="10"
     gridtolerance="10"
     guidetolerance="10"
     inkscape:pageopacity="0"
     inkscape:pageshadow="2"
     inkscape:window-width="1916"
     inkscape:window-height="1041"
     id="namedview4"
     showgrid="false"
     inkscape:zoom="0.15370752"
     inkscape:cx="214.69346"
     inkscape:cy="344"
     inkscape:window-x="968"
     inkscape:window-y="1117"
     inkscape:window-maximized="0"
     inkscape:current-layer="g10" /><g
     id="g10"
     inkscape:groupmode="layer"
     inkscape:label="ink_ext_XXXXXX"
     transform="matrix(1.3333333,0,0,-1.3333333,0,688)"><g
       id="g12"
       transform="scale(0.1)"><g
         id="g14"
         transform="scale(1.19141)"><path
           d="M 0,8.39341 H 16300 V 4330.9934 H 0 Z"
           style="fill:#ffffff;fill-opacity:1;fill-rule:nonzero;stroke:none"
           id="path16"
           inkscape:connector-curvature="0" /></g><path
         d="m 276.91,4934.76 c 312.391,0 624.891,-0.08 937.31,0.12 -0.43,-588.4 0,-1176.8 -0.24,-1765.12 0,-19.38 1.02,-38.79 2.7,-58.09 19.53,28.91 33.01,61.1 49.14,91.92 71.48,139.29 187.19,255.39 327.7,324.8 115.89,59.88 246.48,86.6 376.09,91.8 222.38,10.98 453.79,-40.63 635.19,-174.02 145.98,-102.97 252,-253.17 327.62,-413.21 118.99,-258.16 162.38,-544.29 172.97,-826.29 5.51,-206.6 -4.37,-413.98 -38.28,-618.08 -40.7,-247.03 -115.82,-492.31 -251.6,-704.531 -104.49,-161.18 -249.49,-300.981 -427.81,-377.071 -193.52,-83.519 -414.3,-91.41 -618.01,-44.297 -183.99,42.688 -350.08,152.5 -463.79,302.887 -55,66.684 -91.68,145.313 -137.58,217.813 -1.52,-166.911 -5.74,-334.02 -24.41,-500.121 -296.719,0.121 -593.398,-0.071 -890.121,0.121 17.301,228.597 23.121,457.578 23.199,686.679 -0.078,1254.88 0.121,2509.81 -0.078,3764.69"
         style="fill:#016aba;fill-opacity:1;fill-rule:nonzero;stroke:none"
         id="path18"
         inkscape:connector-curvature="0" /><path
         d="m 5605,4161.79 c 0.39,197.38 0.2,394.88 0.12,592.27 182.77,-0.28 365.58,0.11 548.36,-0.2 0.23,-197.27 -0.08,-394.69 0.23,-591.99 -182.93,-0.31 -365.82,-0.12 -548.71,-0.12"
         style="fill:#016aba;fill-opacity:1;fill-rule:nonzero;stroke:none"
         id="path20"
         inkscape:connector-curvature="0" /><path
         d="m 7095.9,4114.37 c 115.51,34.8 229.61,74.02 346.01,105.51 -7.89,-106.49 -2.11,-213.4 -0.23,-320 -8.16,-130.82 3.12,-261.72 0.23,-392.62 h 615.47 c -0.19,-106.99 0.32,-213.87 -0.27,-320.78 -204.92,0.19 -409.92,-0.2 -614.81,0.19 -7.1,-141.91 -2.5,-283.9 -4.02,-425.9 -2.19,-83.71 6.72,-167.3 0.63,-250.89 8.2,-92.89 -6.53,-186.02 2.18,-278.91 -2.18,-140.51 -1.09,-280.78 0.51,-421.41 -3.4,-90 -5.7,-180.07 -0.39,-270.19 -4.41,-103.01 -2.5,-206.21 -2.69,-309.3 6.48,-114.1 4.18,-235.582 63.67,-337.691 38.83,-66.801 109.29,-110.707 185,-122.5 125.19,-19.418 257.3,-2.109 369.61,58.281 0.7,-116.289 1.4,-232.699 -0.39,-348.988 -99.93,-26.012 -203.29,-35.703 -306.29,-36.793 -86.8,0.582 -175.24,-6.289 -259.92,17.18 -129.81,29.3 -244.18,117.621 -304.81,236.14 -82.77,153.672 -93.98,332.971 -89.37,504.061 -0.12,662.23 0.07,1324.53 -0.12,1986.72 -151.02,0 -302.11,0.19 -453.09,-0.2 -0.31,107.11 0.08,214.1 -0.19,321.1 150.97,-0.2 301.99,-0.12 452.97,-0.12 0.82,202.42 0.19,404.8 0.31,607.11"
         style="fill:#016aba;fill-opacity:1;fill-rule:nonzero;stroke:none"
         id="path22"
         inkscape:connector-curvature="0" /><path
         d="m 13304.8,3608.39 h 123.3 c -0.5,-98.51 0.3,-196.91 -0.5,-295.43 22.6,27.11 47.2,56.8 83.4,65.24 58.5,16.68 133.4,4.68 168.8,-49.42 27,-44.29 32.5,-98.01 33.9,-148.79 -0.1,-105.5 -0.6,-211.13 0,-316.64 -42.6,-0.08 -85.1,-0.08 -127.8,0.12 0.2,102.11 -0.1,204.3 0.3,306.41 -0.7,29.61 -1.9,61.79 -18.9,87.11 -24.1,35.58 -79.5,29.57 -107.8,3 -25.7,-30 -30.8,-71.83 -31.6,-109.92 0,-95.58 0,-191.29 0.1,-286.91 -41.2,0.19 -82.3,0.19 -123.4,0.11 0.4,248.29 0.3,496.72 0.1,745.12"
         style="fill:#016aba;fill-opacity:1;fill-rule:nonzero;stroke:none"
         id="path24"
         inkscape:connector-curvature="0" /><path
         d="m 9355.7,3557.57 c 83.6,-0.39 167.31,1.41 250.9,-0.9 54.3,-4.41 117.7,-23.71 143.28,-76.6 23.52,-45.39 21.02,-99.37 13.13,-148.48 -11.72,-51.91 -55.59,-87.03 -103.6,-104.29 37.58,-14.53 76.37,-33.13 98.99,-68.32 38.4,-59.42 35.7,-139.69 3.08,-201.1 -33.47,-60.5 -103.59,-93.32 -170.97,-94.41 -78.32,-0.78 -156.6,0.08 -234.81,-0.2 0.32,231.53 0.32,462.9 0,694.3"
         style="fill:#016aba;fill-opacity:1;fill-rule:nonzero;stroke:none"
         id="path26"
         inkscape:connector-curvature="0" /><path
         d="m 11956.7,3557.77 c 47.8,-0.2 95.6,0.7 143.5,-1.1 71.1,-231.91 148.6,-461.79 221.7,-693 -44.8,-0.59 -89.5,-0.51 -134.1,-0.2 -15.6,54.8 -32.1,109.3 -47.2,164.3 -80,0 -159.9,1.79 -239.8,-1.1 -14,-55 -31.6,-108.98 -47.4,-163.51 -43.4,0.31 -86.7,-0.2 -130,0.62 77,231.6 155,462.81 233.3,693.99"
         style="fill:#016aba;fill-opacity:1;fill-rule:nonzero;stroke:none"
         id="path28"
         inkscape:connector-curvature="0" /><path
         d="m 5627.19,3506.87 c 168.01,0.51 336.01,0.82 504.02,-0.2 -6.91,-265.31 -0.31,-530.9 -0.7,-796.01 -6.53,-67.19 5.9,-134.49 -0.9,-201.68 -5.51,-63.01 5.78,-126.02 0.27,-188.99 -5.08,-56.6 5.43,-113.32 0.24,-169.92 -7.54,-110 5.9,-220 -0.82,-329.88 6.32,-80 -3.99,-159.92 0.7,-240 -4.49,-70.24 0.7,-140.39 1.41,-210.7 -9.53,-143.01 3.59,-286.41 -3.52,-429.502 0.9,-152.297 2.81,-304.289 0.63,-456.597 -167.11,0 -334.22,-0.313 -501.33,0.199 0.31,1007.77 0.43,2015.5 0,3023.28"
         style="fill:#016aba;fill-opacity:1;fill-rule:nonzero;stroke:none"
         id="path30"
         inkscape:connector-curvature="0" /><path
         d="m 9482.3,3465.38 c 43.52,-1.29 93.21,5.39 129.58,-24.1 46.52,-36.6 39.92,-114.29 -2.47,-151.29 -36.13,-27.5 -84.1,-23.2 -126.71,-23.9 -1.22,66.4 -0.71,132.89 -0.4,199.29"
         style="fill:#ffffff;fill-opacity:1;fill-rule:nonzero;stroke:none"
         id="path32"
         inkscape:connector-curvature="0" /><path
         d="m 12027.8,3450.07 c 23.4,-108.48 59.9,-213.79 82.3,-322.58 -59.9,-0.31 -119.7,-0.19 -179.5,-0.11 31.5,107.81 60.2,216.6 97.2,322.69"
         style="fill:#ffffff;fill-opacity:1;fill-rule:nonzero;stroke:none"
         id="path34"
         inkscape:connector-curvature="0" /><path
         d="m 10015.9,3370.46 c 70.1,23.71 151.6,19.73 215.7,-19.1 58.9,-36.29 88.1,-106.48 94.9,-172.89 5,-84.18 7.2,-177.89 -47.5,-248.01 -53.8,-73.28 -156.1,-88.67 -239.8,-69.49 -68.69,14.41 -125.68,69.8 -145.29,136.6 -22.19,74.49 -22.43,155.31 -3.6,230.51 15.98,63.59 62.39,121.21 125.59,142.38"
         style="fill:#016aba;fill-opacity:1;fill-rule:nonzero;stroke:none"
         id="path36"
         inkscape:connector-curvature="0" /><path
         d="m 10610.4,3369.06 c 57.5,27.3 136.7,22.22 180.3,-28.09 29.7,-32.5 38.6,-78.2 42.3,-120.59 0.5,-119.02 -0.5,-238 0.3,-356.91 -42.2,-0.2 -84.3,-0.2 -126.4,0 -0.1,111.8 1,223.71 -0.4,335.62 0.9,38.99 -22.5,85.67 -67.5,82.19 -51.8,3.67 -85.3,-46.72 -86,-93.9 -3.3,-107.7 -0.5,-215.71 -1.2,-323.52 -42.6,-0.78 -85.2,-0.51 -127.7,-0.7 0.1,171.6 0.4,343.2 0,514.92 39.2,-0.39 78.4,-0.08 117.7,-1.09 0.2,-25.32 0.5,-50.71 0.9,-76.14 18.9,25.94 37,54.81 67.7,68.21"
         style="fill:#016aba;fill-opacity:1;fill-rule:nonzero;stroke:none"
         id="path38"
         inkscape:connector-curvature="0" /><path
         d="m 11058,3296.99 c 22.3,34.88 50.7,70.46 92.7,81.48 52.1,14.3 115.3,6.8 154.8,-32.89 38.1,-41.8 42.6,-101.49 46.8,-155.31 0.9,-108.91 -0.3,-217.89 0.5,-326.8 -42.6,-0.2 -85.1,-0.2 -127.6,-0.12 0.2,99.03 -0.1,198.05 0.3,296.92 -1,32.3 -0.2,67.42 -18.2,95.62 -24,35.47 -79.5,31.99 -108,4.49 -25,-26.4 -31.5,-64.92 -31.1,-100 0.6,-99.1 0.1,-198.12 0.4,-297.22 -41.6,0.31 -83.2,0.19 -124.8,0 0.5,138.9 -0.1,277.81 0.4,416.64 0.3,32.69 -1.9,65.27 -6.8,97.58 39.6,0.39 79.2,0.39 118.9,0.19 1.6,-26.8 2.5,-53.71 1.7,-80.58"
         style="fill:#016aba;fill-opacity:1;fill-rule:nonzero;stroke:none"
         id="path40"
         inkscape:connector-curvature="0" /><path
         d="m 12404.7,3347.06 c 78.4,37.31 169.6,49.22 254.1,27.11 39.3,-10.5 74.1,-38.2 89.5,-76.48 27.3,-65.94 17.7,-138.71 19.4,-208.13 2.1,-75.31 -5.8,-151.17 6.5,-225.89 -38.9,-0.4 -77.7,-0.51 -116.4,0 -1.7,21.91 -3.4,43.9 -4.6,65.82 -48.4,-75.4 -158.7,-100.63 -233.2,-49.73 -88.3,55.7 -87.6,204.41 0.8,259.73 69.3,45.27 154.9,34.49 233.3,43.78 -6.6,36.8 -10.3,84.18 -49.8,101.41 -64.3,26.8 -134.4,-3.2 -190.1,-36.8 -1.7,33.21 -5,66.29 -9.5,99.18"
         style="fill:#016aba;fill-opacity:1;fill-rule:nonzero;stroke:none"
         id="path42"
         inkscape:connector-curvature="0" /><path
         d="m 12960.1,3340.46 c 76.2,54.03 178.2,54.22 263.9,23.91 -1.6,-33.4 -5.7,-66.68 -9.2,-100 -38,19.3 -81.4,31.4 -123.7,20.82 -49.8,-9.22 -82.2,-56.6 -90,-104.02 -16,-72.58 -6.7,-164.11 58.7,-210.4 49.3,-32.38 114.1,-20.89 164.2,3.79 1.3,-33.08 2.9,-66.29 8.5,-98.98 -90.6,-31.91 -201.3,-34.41 -280.6,26.6 -62.4,49.3 -83.8,132.5 -87.1,208.59 -0.7,84.42 23.6,177.82 95.3,229.69"
         style="fill:#016aba;fill-opacity:1;fill-rule:nonzero;stroke:none"
         id="path44"
         inkscape:connector-curvature="0" /><path
         d="m 13839.7,3267.77 c 27.1,55.39 77.8,102.89 140.1,113.71 70,13.01 151.4,-6.92 194.5,-67.19 46.5,-66.09 51.4,-150.51 52.7,-228.71 -100.2,0 -200.5,0.59 -300.7,-0.31 5,-45 12,-100 57.6,-122.62 66.9,-32.38 147.8,-15.39 209.1,22.54 2.3,-33.2 4.4,-66.52 5.1,-99.92 -86.9,-34.3 -190,-48.21 -275.5,-3.28 -57.1,28.47 -92.8,87.18 -106.7,147.69 -17.9,79.1 -10.3,164.41 23.8,238.09"
         style="fill:#016aba;fill-opacity:1;fill-rule:nonzero;stroke:none"
         id="path46"
         inkscape:connector-curvature="0" /><path
         d="m 14435.8,3300.85 c 21.9,31.92 47.6,64.73 86.3,76.53 53.8,16.09 120.9,9.41 160.3,-34.5 32.4,-35.5 41.9,-85.82 43,-132.38 -0.2,-115.7 -0.4,-231.52 0,-347.23 -41.1,0.08 -82.3,0.08 -123.3,-0.11 0.2,95.62 -0.3,191.21 0.4,286.72 -0.2,32.5 -1,66.29 -13.6,96.68 -17.7,43.12 -81.2,41.01 -112.5,15.54 -28.4,-29.53 -32.8,-72.93 -32.9,-111.91 0.1,-95.63 -0.1,-191.21 0.3,-286.84 -42.5,0 -85,-0.08 -127.4,0 -0.1,171.53 1.1,343.01 -0.4,514.53 39.2,-0.19 78.4,0 117.7,-0.58 0.4,-25.43 1,-50.94 2.1,-76.45"
         style="fill:#016aba;fill-opacity:1;fill-rule:nonzero;stroke:none"
         id="path48"
         inkscape:connector-curvature="0" /><path
         d="m 13964.5,3275.38 c 29.1,33.91 90,30.79 115.1,-6.71 20.4,-30.4 21.4,-68.68 26.8,-103.79 -60.1,-0.71 -120.1,-0.71 -180,0 5.5,38.51 8.8,81.6 38.1,110.5"
         style="fill:#ffffff;fill-opacity:1;fill-rule:nonzero;stroke:none"
         id="path50"
         inkscape:connector-curvature="0" /><path
         d="m 10063.8,3285.19 c 33.1,17.58 79.2,11.87 102.2,-19.53 31.3,-41.37 32.7,-96.17 35.2,-145.9 -3.5,-49.49 -2.2,-105 -35.2,-145.67 -25.2,-34.29 -81.6,-42.73 -112.2,-11.32 -48.1,44.61 -47.4,116.99 -47.2,177.69 3.3,51.21 9.9,114.73 57.2,144.73"
         style="fill:#ffffff;fill-opacity:1;fill-rule:nonzero;stroke:none"
         id="path52"
         inkscape:connector-curvature="0" /><path
         d="m 11445.9,3196.36 c 77,0.12 154,0.12 231,0.12 v -101.99 c -77,0.19 -154,0.07 -231,0.07 -0.1,34.03 -0.1,67.93 0,101.8"
         style="fill:#016aba;fill-opacity:1;fill-rule:nonzero;stroke:none"
         id="path54"
         inkscape:connector-curvature="0" /><path
         d="m 9482.3,3173.59 c 42,-0.71 87.19,5.27 125.9,-15 69.3,-38.01 63.6,-157.82 -9.68,-188.32 -37.23,-13.4 -77.82,-6.92 -116.53,-8.4 0.12,70.58 -0.19,141.21 0.31,211.72"
         style="fill:#ffffff;fill-opacity:1;fill-rule:nonzero;stroke:none"
         id="path56"
         inkscape:connector-curvature="0" /><path
         d="m 12504.2,3084.88 c 44,27.69 98.7,28.08 149.1,29.8 -6.6,-46.6 -0.8,-98.59 -28.5,-139.41 -16.6,-25.78 -48.4,-31.68 -75.3,-40.28 -26,9.38 -56.7,17.78 -69.4,45.08 -15,34.81 -9.7,82.62 24.1,104.81"
         style="fill:#ffffff;fill-opacity:1;fill-rule:nonzero;stroke:none"
         id="path58"
         inkscape:connector-curvature="0" /><path
         d="m 1591.91,2969.17 c 110.28,21.92 234.18,8.4 325.39,-61.99 88.52,-68.98 136.29,-176.41 164.11,-282.42 35.7,-141.8 46.17,-288.59 47.18,-434.38 11.72,-139.72 1.29,-279.8 -4.29,-419.61 -12.11,-140.82 -33.71,-283.51 -92.11,-413.47 -32.07,-72.31 -80.78,-138.13 -145.28,-184.61 -91.13,-62.31 -211.91,-75.43 -316.13,-42.31 -124.96,43.09 -207.07,159.18 -254.69,277.31 -77.69,193.79 -98.08,405.31 -101.6,612.5 2.42,204.18 11.8,411.68 72.31,608.16 33.4,102.62 82.5,206.21 168.71,274.92 40.08,31.29 86.6,54.61 136.4,65.9"
         style="fill:#ffffff;fill-opacity:1;fill-rule:nonzero;stroke:none"
         id="path60"
         inkscape:connector-curvature="0" /><path
         d="m 3601.72,2468.2 c 242.77,7.26 485.58,-3.21 728.28,2.77 146.48,-2.77 293.2,4.22 439.8,-2.3 68.01,5.82 136.22,-3.48 204.18,2.92 1.02,-202.92 0.12,-405.82 0.43,-608.71 -457.42,0 -914.92,-0.19 -1372.42,0.08 -0.39,201.72 0.2,403.52 -0.27,605.24"
         style="fill:#016aba;fill-opacity:1;fill-rule:nonzero;stroke:none"
         id="path62"
         inkscape:connector-curvature="0" /><path
         d="m 14497.9,2418.39 c 42.2,0.47 84.4,0.39 126.9,0.2 0.3,-250.24 0.2,-500.51 0,-750.71 -41.1,0.2 -82.3,0.28 -123.4,-0.11 -7.3,90.43 -1.7,181.29 -3.4,271.99 -0.1,159.53 0.2,319.1 -0.1,478.63"
         style="fill:#016aba;fill-opacity:1;fill-rule:nonzero;stroke:none"
         id="path64"
         inkscape:connector-curvature="0" /><g
         id="g66"
         transform="scale(1.12321)"><path
           d="m 16119.7,2130.38 c 48.7,44.52 120.9,32.77 180.3,23.24 -2,-27.44 -3.9,-54.95 -4,-82.46 -28.4,6.71 -65.5,15.58 -85.6,-12.35 -20.2,-34.46 -8.3,-77.1 -11.4,-115.1 28.7,0.06 57.5,0.06 86.3,0.06 -3.3,-27.33 7.6,-59.81 -7.6,-83.95 -26.4,-2.05 -52.5,-0.9 -78.7,-0.98 -0.1,-124.57 0.5,-249.21 -0.3,-373.85 -36.5,0.1 -72.9,0.1 -109.3,0 -1.1,124.47 -0.2,249.04 -0.5,373.47 -25.7,0.46 -51.4,0.46 -76.8,0.38 -0.2,28.39 -0.2,56.8 -0.2,85.11 25.5,-0.24 51.3,-0.18 77.1,0.1 4,61.94 -15.4,135.6 30.7,186.33"
           style="fill:#016aba;fill-opacity:1;fill-rule:nonzero;stroke:none"
           id="path68"
           inkscape:connector-curvature="0" /></g><path
         d="m 12687.5,2401.99 c 42.8,0.07 85.6,0.07 128.5,0.07 0.4,-41.29 0.5,-82.69 -0.2,-124.1 -42.9,0.31 -85.9,-1.17 -128.5,3.83 0,40.08 0,80.08 0.2,120.2"
         style="fill:#016aba;fill-opacity:1;fill-rule:nonzero;stroke:none"
         id="path70"
         inkscape:connector-curvature="0" /><path
         d="m 15199.4,2358.98 c 86.9,29.29 181.7,18.08 267.4,-10.71 -3.7,-38.9 -2.9,-78.08 -8.5,-116.79 -65.4,35.7 -147.9,51.91 -217.2,17.61 -68.1,-31.71 -99.5,-108.71 -106.5,-179.41 -4.2,-64.22 -5.2,-131.6 21.7,-191.6 21.8,-51.6 67.4,-93.52 122.4,-106.41 60.8,-16.48 125.8,-1.21 179.5,29.69 5.2,-39.26 5.1,-79.1 8.6,-118.67 -102.8,-34.3 -222.6,-36.99 -318.9,17.07 -77.7,42.54 -125.7,125.51 -142.7,210.31 -19.8,94.22 -15.3,195.39 21.9,284.92 30.8,75.59 93.8,139.1 172.3,163.99"
         style="fill:#016aba;fill-opacity:1;fill-rule:nonzero;stroke:none"
         id="path72"
         inkscape:connector-curvature="0" /><path
         d="m 9369.1,2354.37 c 39.1,16.29 85.39,3.71 127.31,7.3 0.7,-232.69 0.19,-465.39 0.27,-698.08 -42.97,0 -85.9,-0.12 -128.67,0.27 1.09,230.23 -1.29,460.43 1.09,690.51"
         style="fill:#016aba;fill-opacity:1;fill-rule:nonzero;stroke:none"
         id="path74"
         inkscape:connector-curvature="0" /><g
         id="g76"
         transform="scale(1.03349)"><path
           d="m 16079.7,2215.67 c 41,11.72 81.8,24.38 122.6,37.72 0.2,-47.01 0.3,-94.12 -0.2,-141.13 32.4,0.26 65,0.26 97.5,0.45 -0.1,-30.76 -0.1,-61.64 -0.2,-92.6 -32.4,0.19 -64.9,0.19 -97.1,0.31 0.3,-60.86 0.2,-121.63 0.2,-182.49 0.4,-43.47 -5.2,-88.33 10.6,-129.94 28.3,-9.6 58.2,-9.5 86.9,-0.12 -0.5,-29.03 -0.5,-58.05 -0.5,-87.08 -52,-15.65 -111.1,-21.47 -161.4,2.91 -42.2,22.64 -57.8,72.65 -58.4,117.66 -0.5,92.98 0,186.08 0,279.06 -26.9,-0.12 -53.7,-0.12 -80.3,-0.12 -0.8,30.88 -0.9,61.65 -0.8,92.41 26.9,-0.19 53.8,-0.19 81,-0.26 0,34.43 0,68.75 0.1,103.22"
           style="fill:#016aba;fill-opacity:1;fill-rule:nonzero;stroke:none"
           id="path78"
           inkscape:connector-curvature="0" /></g><path
         d="m 10165.7,2289.88 c 38.2,16.09 79.1,24.61 118.4,37.69 0.3,-48.08 0.3,-96.29 0.1,-144.49 34.5,0.19 69.1,0.19 103.8,0.39 0.1,-31.8 0,-63.71 -0.7,-95.51 h -103 c 0.3,-82.69 -0.3,-165.39 0,-248.08 -0.5,-25 5.4,-49.42 12.3,-73.4 29.7,-11.8 61.5,-11.49 91.8,-1.41 -0.5,-29.8 -0.4,-59.61 -0.5,-89.37 -28.6,-7.93 -57.8,-13.13 -86.8,-18.32 -36.3,7.5 -77.1,10.19 -105.4,36.99 -33.9,36.6 -36.8,88.9 -37.5,136.09 0.1,85.63 -0.1,171.21 0.3,256.72 -27.3,0.51 -54.5,1.68 -81.4,4.3 0.2,30.58 0.2,61.29 0.2,91.91 26.9,-0.12 53.9,-0.12 81.1,-0.12 3.3,34.93 -8.7,75.12 7.3,106.61"
         style="fill:#016aba;fill-opacity:1;fill-rule:nonzero;stroke:none"
         id="path80"
         inkscape:connector-curvature="0" /><path
         d="m 12374.1,2290.66 c 42.8,11.52 84.9,25.43 127.5,37.61 0,-48.39 0.1,-96.79 0,-145.27 33.5,0.27 67.2,0.27 100.9,0.27 -0.8,-31.79 -1,-63.71 -4.6,-95.5 -33.6,0.31 -67,0.31 -100.4,-0.71 7.2,-92.38 2.9,-185.07 4.3,-277.57 0.9,-14.5 0.3,-32.7 13.9,-42.04 24.7,-20.78 58.1,-7.07 86.3,-2.77 -0.3,-29.41 -0.3,-58.79 -0.1,-88.2 -27.3,-7.89 -55.3,-13.52 -83,-19.18 -34.2,7.07 -72.4,6.99 -100.2,30.86 -33.4,26.13 -45.3,70.23 -44.8,111.01 -0.5,96.21 0,192.5 0,288.71 -27.4,0.08 -54.5,0.08 -81.7,0 -3.1,31.68 -4.2,63.71 -2.3,95.51 27.9,-0.12 55.8,-0.12 83.8,-0.12 0,35.79 0,71.61 0.4,107.39"
         style="fill:#016aba;fill-opacity:1;fill-rule:nonzero;stroke:none"
         id="path82"
         inkscape:connector-curvature="0" /><path
         d="m 9714.49,2106.36 c 21.02,32.7 47.19,66.41 86.29,77.81 47.11,17.58 103.2,9.42 144.02,-19.88 48.29,-39.02 59,-105.51 60.2,-164.1 -0.1,-110.82 0.1,-221.6 -0.2,-332.31 -42.42,0.2 -85,-1.21 -127.1,4.11 0.7,99.29 0,198.59 0.5,297.89 -0.39,35.39 0,75.39 -25.31,103.39 -20.7,18.91 -52.89,16.41 -77.89,9.3 -37.3,-19.1 -52.89,-62.38 -52.5,-102.3 -0.51,-102.89 -0.2,-205.9 0.12,-308.91 -42.03,-4.8 -84.22,-3.09 -126.21,-3.59 -1.8,171.91 3.9,344.02 -3.13,515.82 38.52,-0.51 77.03,-0.32 115.63,-0.32 3.2,-25.5 4.8,-51.21 5.58,-76.91"
         style="fill:#016aba;fill-opacity:1;fill-rule:nonzero;stroke:none"
         id="path84"
         inkscape:connector-curvature="0" /><path
         d="m 10519.6,2129.8 c 70.9,81.68 211,84.29 285.6,6.37 58,-66.8 63.5,-160.28 61.9,-244.69 -98.9,-1.92 -197.9,3.08 -296.6,-3.71 3.5,-44.3 12.7,-98.48 57.9,-119.3 66.8,-29.88 147.8,-15.51 207.6,24.3 0.3,-32.78 4,-65.28 8.3,-97.82 -85.9,-37.89 -190.6,-49.49 -277,-7.38 -62.7,30 -99.1,96.1 -111.3,162.11 -12.9,96.21 -3.9,204.81 63.6,280.12"
         style="fill:#016aba;fill-opacity:1;fill-rule:nonzero;stroke:none"
         id="path86"
         inkscape:connector-curvature="0" /><path
         d="m 11077.4,2090.77 c 23.7,58.91 78.3,107.5 145.1,103.4 20.6,-35 5.4,-80.27 10,-119.41 -31.4,1.33 -65.8,5.04 -92.9,-14.38 -33.5,-20.62 -48.1,-61.79 -46.5,-99.68 0.5,-97.03 0.2,-194.03 0.4,-291.14 -42.6,-2.3 -85.1,-1.29 -127.5,-1.68 -2.4,171.8 4.3,343.91 -3.8,515.51 37.6,-0.19 75.3,-0.12 113.1,-0.12 1.5,-30.78 2.4,-61.6 2.1,-92.5"
         style="fill:#016aba;fill-opacity:1;fill-rule:nonzero;stroke:none"
         id="path88"
         inkscape:connector-curvature="0" /><path
         d="m 11306.7,2183.08 c 39,0.19 78.1,0.12 117.3,0.51 2.5,-24.42 5.8,-48.71 9.4,-73.13 37.5,81.53 150.4,107.23 222.7,57.11 46.9,-32.62 62.1,-93.51 61.8,-147.69 0.6,-117.31 0.7,-234.61 -0.2,-351.92 -41.1,0.12 -82.1,0.12 -123,0 -1.6,110.63 0.9,221.21 -1.1,331.8 0.5,37.69 -18.3,89.3 -63.5,87.62 -49.6,7.69 -89.8,-40.08 -88.5,-86.92 -3,-110.9 -1.1,-221.68 -3.4,-332.58 -41.4,0.2 -82.9,0.28 -124.2,0 -0.7,143.91 -0.1,287.78 -0.3,431.72 -0.2,27.97 -3.7,55.78 -7,83.48"
         style="fill:#016aba;fill-opacity:1;fill-rule:nonzero;stroke:none"
         id="path90"
         inkscape:connector-curvature="0" /><path
         d="m 11854.3,2154.95 c 70.7,30.94 150.4,49.34 227.1,31.61 47.6,-6.37 92.9,-34.97 113.1,-79.5 27,-61.99 18.1,-131.29 19.8,-197.07 1.5,-78.32 -4.9,-157.11 7,-234.92 -1.9,-1.8 -5.7,-5.51 -7.6,-7.38 -36.1,0.47 -72.1,0.39 -108.1,0.39 -2.1,23.59 -3.7,47.11 -4,70.59 -46.9,-78.48 -159.8,-101.68 -235.5,-52.31 -88.2,57.23 -85.3,207.73 4.7,262.03 68,39.49 149.5,37.89 225.7,40.47 0.1,35.63 -3.2,81.21 -39.1,99.41 -65.5,34.42 -141.6,0.59 -198.1,-36.71 -1.1,34.53 -3.7,68.9 -5,103.39"
         style="fill:#016aba;fill-opacity:1;fill-rule:nonzero;stroke:none"
         id="path92"
         inkscape:connector-curvature="0" /><path
         d="m 13004.1,2145.27 c 84.4,65.19 214.2,63.51 296.6,-4.5 57.2,-53.08 75.8,-135.58 74.3,-211.09 2.1,-78.01 -14.3,-165.19 -74.9,-219.61 -41,-37.19 -97.5,-45.7 -150.2,-52.11 -54.9,6.53 -114.5,15.31 -155.3,56.33 -61.2,56.8 -73.8,145.9 -71.2,225.27 -0.1,74.73 20.5,156.53 80.7,205.71"
         style="fill:#016aba;fill-opacity:1;fill-rule:nonzero;stroke:none"
         id="path94"
         inkscape:connector-curvature="0" /><path
         d="m 13587,2106.28 c 23,30.39 47,64.49 85.1,76.8 46.9,18.28 102.1,11.48 143.8,-16.21 45.8,-32.89 60.9,-92.81 61.6,-146.6 -0.4,-117.5 0.2,-235 -0.4,-352.5 -41.1,0.39 -82,0.39 -122.9,0 -0.3,97.5 -0.3,195.11 0.1,292.61 -0.2,35.08 0.3,73.4 -19.2,104.11 -17.9,29.29 -58.8,26.28 -87,17.5 -40.2,-20.63 -51.1,-70.32 -52.1,-111.61 -0.5,-100.82 0.3,-201.71 -0.1,-302.61 -41.4,0.39 -82.4,0.39 -123.4,0 -0.8,147.3 -0.2,294.61 -0.3,441.91 -0.1,24.69 -2.8,49.3 -5.6,73.79 39.5,-0.27 79.1,-0.2 118.7,-0.27 1,-25.63 1.5,-51.21 1.7,-76.92"
         style="fill:#016aba;fill-opacity:1;fill-rule:nonzero;stroke:none"
         id="path96"
         inkscape:connector-curvature="0" /><path
         d="m 14012.7,2154.17 c 70.4,33.09 151.4,49.69 228.8,32.31 45.5,-6.99 92.5,-31.8 110.8,-76.6 28.8,-66.1 22,-139.69 22.6,-209.93 0.9,-77.38 -2.8,-154.88 2.9,-232.07 -37.4,0.2 -74.9,0.2 -112.2,0.08 -2.2,21.6 -3.6,43.21 -5.2,64.81 -28.2,-23.68 -53.4,-53.79 -89.9,-64.61 -52.3,-12.97 -113.4,-8.99 -156.1,26.91 -69.5,54.92 -69.5,170 -11.9,233.13 69.8,61.05 168.9,57.46 256.1,60.78 -2.8,38.4 -9.3,85.08 -48.8,102.89 -64.4,29.49 -134.5,-6.29 -191.2,-37.38 -1.8,33.28 -3,66.48 -5.9,99.68"
         style="fill:#016aba;fill-opacity:1;fill-rule:nonzero;stroke:none"
         id="path98"
         inkscape:connector-curvature="0" /><path
         d="m 15651.6,2161.67 c 76.2,50.82 190.1,39.61 250.5,-30.9 56.1,-65.31 60.6,-157.1 60.7,-239.1 -100.1,-1.21 -200,-3 -300,-0.08 3.5,-46.91 15.9,-100.89 61.7,-124.1 66.9,-30 144.6,-10.82 206.8,22 2.2,-32.5 3.3,-65 4,-97.62 -49.6,-20.08 -102.4,-28.6 -155.2,-33.79 -57.4,6.68 -120.1,16.91 -161.8,60.9 -71.7,65.31 -82.3,170.9 -70.4,261.79 11.7,69.3 41.4,142.39 103.7,180.9"
         style="fill:#016aba;fill-opacity:1;fill-rule:nonzero;stroke:none"
         id="path100"
         inkscape:connector-curvature="0" /><g
         id="g102"
         transform="scale(1.01)"><path
           d="m 15894.7,2161.78 c 38.1,-0.19 76.3,-0.19 114.5,0.08 1.7,-25.34 3,-50.58 4,-75.96 15.6,23.21 32,46.95 55.7,62.61 56,35.63 134.8,29.21 184.3,-14.57 36.4,-38.02 45.5,-93.37 46.6,-143.95 0,-111.89 -0.2,-223.79 0.2,-335.76 -42,-4.05 -84.2,-2.39 -126.1,-2.97 -0.3,109.81 -0.3,219.6 0.2,329.4 0.2,29.52 -7.4,64.36 -34.7,80.33 -35,14.36 -81.9,4.54 -100.1,-30.82 -22.7,-42.35 -19.9,-92.48 -21,-139.08 0,-79.9 0.5,-159.81 -0.4,-239.72 -40.2,0.2 -80.4,0.2 -120.6,0.2 -1,170.1 1.5,340.19 -2.6,510.21"
           style="fill:#016aba;fill-opacity:1;fill-rule:nonzero;stroke:none"
           id="path104"
           inkscape:connector-curvature="0" /></g><g
         id="g106"
         transform="scale(1.06315)"><path
           d="m 16013.1,2037.97 c 79.7,47.88 198.9,25.79 246.6,-56.98 35.7,-61.81 40.3,-135.54 37.4,-205.25 -92.7,3.68 -185.9,5.74 -278.5,0.08 1.3,-44.57 15.1,-97.26 61,-115.41 61.5,-23.88 133.1,-10.07 187.8,24.95 1.8,-31.15 5.4,-62.47 1.8,-93.58 -43.1,-22.6 -92.4,-25.43 -139.5,-32.19 -60.7,5.26 -126.5,18.93 -166.9,68.93 -60.9,67.17 -62.7,164.24 -51.5,249.18 12.4,63.01 44.2,127.17 101.8,160.27"
           style="fill:#016aba;fill-opacity:1;fill-rule:nonzero;stroke:none"
           id="path108"
           inkscape:connector-curvature="0" /></g><g
         id="g110"
         transform="scale(1.08556)"><path
           d="m 16155.1,1926.1 c 23.5,56.28 79.7,106.48 144.5,91.72 0,-35.8 -0.1,-71.75 0.4,-107.66 -25.8,1.48 -53.4,6.44 -77.1,-6.66 -34.1,-15.65 -53.3,-52.75 -54.1,-89.34 -3.1,-92.48 3.4,-185.35 -3.9,-277.73 -38.2,0.26 -76.3,0.26 -114.4,-0.1 -1,158.43 0.7,316.79 -0.6,475.16 34.5,-0.46 69.1,-0.36 103.9,-0.11 -0.4,-28.46 0.5,-56.85 1.3,-85.28"
           style="fill:#016aba;fill-opacity:1;fill-rule:nonzero;stroke:none"
           id="path112"
           inkscape:connector-curvature="0" /></g><g
         id="g114"
         transform="scale(1.15357)"><path
           d="m 16041,1892.02 c 63.9,19.61 137.9,7.28 190.6,-34.57 46.6,-41.62 64.3,-106.3 66.2,-166.87 2.2,-68.57 -5.3,-144.97 -54.4,-197.39 -51.4,-56.11 -136.9,-61.49 -206.6,-45.11 -63.6,15.35 -109.2,72.41 -122,134.74 -14.8,75.25 -14.8,157.84 20.9,227.45 20.4,41.69 60.9,70.41 105.3,81.75"
           style="fill:#016aba;fill-opacity:1;fill-rule:nonzero;stroke:none"
           id="path116"
           inkscape:connector-curvature="0" /></g><g
         id="g118"
         transform="scale(1.17596)"><path
           d="m 16217.8,1844.17 c 22.7,17.33 52.1,19.29 79.5,22.78 2.7,-34.18 1.6,-68.59 2.5,-102.97 -33.5,3.92 -71.3,1.62 -95.5,-24.92 -27.1,-31.63 -26.6,-75.67 -25.6,-114.96 0.2,-68.63 0.1,-137.26 0,-205.88 -35,0.33 -69.8,0.33 -104.5,0.09 -0.4,122.28 -0.2,244.55 0,366.93 0.1,23.98 -2.8,47.8 -6,71.51 33,-0.23 66,-0.07 99.1,-0.4 0.7,-25.95 0.9,-51.98 1.1,-77.99 12.5,24.48 26.2,49.76 49.4,65.81"
           style="fill:#016aba;fill-opacity:1;fill-rule:nonzero;stroke:none"
           id="path120"
           inkscape:connector-curvature="0" /></g><path
         d="m 12687.1,2183.27 c 42.4,-0.07 85,-0.07 127.6,0.12 -0.2,-171.8 0.1,-343.63 -0.2,-515.51 -42.5,0.2 -85,0.2 -127.3,0.08 -0.2,171.8 0,343.52 -0.1,515.31"
         style="fill:#016aba;fill-opacity:1;fill-rule:nonzero;stroke:none"
         id="path122"
         inkscape:connector-curvature="0" /><path
         d="m 10602.8,2077.18 c 25.7,34.49 83.3,40.12 112.2,6.72 28,-30.31 29.6,-73.44 32.6,-112.23 -59.2,-0.11 -118.3,-0.5 -177.3,0.32 4.1,36.4 7.3,76.09 32.5,105.19"
         style="fill:#ffffff;fill-opacity:1;fill-rule:nonzero;stroke:none"
         id="path124"
         inkscape:connector-curvature="0" /><path
         d="m 13141,2102.77 c 42.1,5.11 78.8,-29.81 90.7,-68.01 16.9,-52.89 16.5,-109.57 11.8,-164.38 -4.9,-36.32 -13.8,-76.09 -42.8,-101.32 -22.5,-21.61 -58.4,-20.79 -86.1,-11.57 -40,21.49 -53.9,68.99 -59.1,111.1 -4.6,51.6 -6.3,105.08 7.9,155.47 9.8,37.03 37.6,73.12 77.6,78.71"
         style="fill:#ffffff;fill-opacity:1;fill-rule:nonzero;stroke:none"
         id="path126"
         inkscape:connector-curvature="0" /><path
         d="m 15703.9,2085.58 c 30.3,30.7 88.6,26.8 112.4,-10.2 21,-30 20.8,-68.2 28,-102.81 -60.6,-1.72 -121.1,-1.48 -181.6,-0.31 5.7,39.73 10.6,84.02 41.2,113.32"
         style="fill:#ffffff;fill-opacity:1;fill-rule:nonzero;stroke:none"
         id="path128"
         inkscape:connector-curvature="0" /><g
         id="g130"
         transform="scale(1.05569)"><path
           d="m 16158,1963.24 c 22.6,37.64 81.4,42.14 111.7,11.36 24.4,-29.82 26.3,-69.9 30.3,-106.57 -56.1,-0.73 -112.1,-1.14 -168.2,0.2 2.6,32.89 6.2,67.45 26.2,95.01"
           style="fill:#ffffff;fill-opacity:1;fill-rule:nonzero;stroke:none"
           id="path132"
           inkscape:connector-curvature="0" /></g><g
         id="g134"
         transform="scale(1.1459)"><path
           d="m 16175.8,1826.14 c 38.2,23.73 88.4,-1.13 102.5,-41.35 21.7,-61.87 20.9,-130.63 4.6,-193.83 -8.3,-35.08 -38.9,-68.42 -78.1,-62.21 -35.4,-1.4 -59.3,30.54 -67.9,61.32 -15.7,56.04 -16.9,116.25 -2.6,172.69 6.1,24.89 19,49.68 41.5,63.38"
           style="fill:#ffffff;fill-opacity:1;fill-rule:nonzero;stroke:none"
           id="path136"
           inkscape:connector-curvature="0" /></g><path
         d="m 11962.1,1898.27 c 40.9,21.61 88.4,19.61 133.4,19.18 0.5,-44.49 3.3,-92.18 -21,-131.68 -19.7,-36.99 -68.9,-45.78 -106,-34.8 -62.5,18.91 -64.2,121.6 -6.4,147.3"
         style="fill:#ffffff;fill-opacity:1;fill-rule:nonzero;stroke:none"
         id="path138"
         inkscape:connector-curvature="0" /><path
         d="m 14126.9,1901.28 c 40.8,19.38 86.9,16.41 130.8,15.9 -2.7,-46.21 0.2,-96.91 -27.7,-136.6 -34.3,-50.31 -131.2,-45.82 -147.3,18.01 -16.4,39.49 7.1,85.39 44.2,102.69"
         style="fill:#ffffff;fill-opacity:1;fill-rule:nonzero;stroke:none"
         id="path140"
         inkscape:connector-curvature="0" /><path
         d="m 10204.3,1195.38 c 51.6,55.39 135.7,42.82 202.7,30.71 -0.4,-30.51 -0.9,-61.02 -2.6,-91.53 -31.8,5.2 -71.9,16.21 -94.9,-13.79 -24.1,-38.51 -11.2,-86.28 -14.1,-129.098 h 91.7 c 0.7,-31.211 0.7,-62.5 0.1,-93.711 -30.7,0.117 -61.4,0 -91.9,-0.191 0.1,-140.59 0.1,-281.18 -0.1,-421.801 -42.3,0 -84.5,-0.078 -126.7,0.312 0.1,140.391 -0.3,280.778 0.2,421.098 -27.7,0.391 -55.2,1.293 -82.6,3.902 0,29.18 0.1,58.399 0.1,87.5 27.4,2.188 54.9,3.09 82.5,3.481 1.9,67.728 -11.8,147.228 35.6,203.118"
         style="fill:#016aba;fill-opacity:1;fill-rule:nonzero;stroke:none"
         id="path142"
         inkscape:connector-curvature="0" /><path
         d="m 15804.1,475.969 c -0.5,249.492 0,499.101 -0.3,748.591 42.6,-0.27 85.3,-0.19 128.1,-0.39 -0.5,-97.58 0.4,-195.31 -0.6,-292.998 23.5,27.609 50.1,57.609 87.9,63.707 46.5,5.581 100.9,6.601 137.1,-28.52 46.9,-40.781 53.5,-107.687 52.3,-166.089 -0.4,-108.09 0,-216.18 -0.2,-324.301 -40.9,0 -81.8,0 -122.6,0.121 -0.4,100.898 0.4,201.789 -0.1,302.691 0.1,36.098 -8.1,71.489 -22.8,104.297 -25.4,7.891 -53.4,19.184 -79.2,6.91 -35.7,-13.398 -52.7,-53.707 -51.9,-89.718 -0.2,-107.891 0.1,-215.899 0,-323.911 -42.7,-0.468 -85.2,-0.39 -127.7,-0.39"
         style="fill:#016aba;fill-opacity:1;fill-rule:nonzero;stroke:none"
         id="path144"
         inkscape:connector-curvature="0" /><g
         id="g146"
         transform="scale(1.07407)"><path
           d="m 16184,443.147 c -0.5,232.287 -0.1,464.684 -0.1,696.973 38.5,-0.26 77.3,-0.36 116,0.11 -0.3,-232.399 0.1,-464.796 -0.3,-697.083 -38.6,0.113 -77.1,0.113 -115.6,0"
           style="fill:#016aba;fill-opacity:1;fill-rule:nonzero;stroke:none"
           id="path148"
           inkscape:connector-curvature="0" /></g><path
         d="m 12977.9,1206.79 c 43.4,1.17 86.8,0.7 130.3,0.9 0.2,-40.7 2.7,-81.41 3.8,-122.23 -44.7,-0.08 -89.4,-0.08 -134,0 0,40.51 0,80.9 -0.1,121.33"
         style="fill:#016aba;fill-opacity:1;fill-rule:nonzero;stroke:none"
         id="path150"
         inkscape:connector-curvature="0" /><path
         d="m 9355.12,1174.37 c 43.4,0.31 86.79,0.12 130.27,0.39 -0.39,-232.889 0.12,-465.901 -0.19,-698.791 H 9355 c -0.12,232.812 -0.2,465.621 0.12,698.401"
         style="fill:#016aba;fill-opacity:1;fill-rule:nonzero;stroke:none"
         id="path152"
         inkscape:connector-curvature="0" /><path
         d="m 14452.6,1071.87 c -0.1,34.3 -0.1,68.59 0,102.89 146.2,-0.67 292.4,0.43 438.7,-0.59 -0.1,-33.9 -0.1,-67.81 0.1,-101.68 -52,-1.13 -103.9,-0.5 -155.8,-0.7 -0.8,-198.63 0,-397.231 -0.4,-595.821 -42.9,0 -85.5,0 -128.3,0.121 -0.2,198.59 0.4,397.18 -0.2,595.78 h -154.1"
         style="fill:#016aba;fill-opacity:1;fill-rule:nonzero;stroke:none"
         id="path154"
         inkscape:connector-curvature="0" /><path
         d="m 12664.4,1095.38 c 41.3,12.89 82.8,25.59 124.1,38.99 5.8,-47.31 3.8,-95 3.7,-142.499 33.7,0 67.5,-0.281 101.4,-3.09 -0.2,-29.222 -0.1,-58.402 0,-87.609 -33.7,-3.402 -67.5,-3.293 -101.2,-3.402 0.1,-86.098 -0.2,-172.11 -0.1,-258.211 0,-25.387 1.2,-56.989 26.8,-70.778 23.4,-10.621 49.9,-1.722 74.5,-0.902 -0.2,-28.391 -0.2,-56.91 0.1,-85.5 -55.9,-18.598 -121.5,-24.609 -173.8,7.109 -43.9,27.301 -53,83.082 -55.1,130.582 -0.8,92.621 0,185.309 -0.2,278.008 -26.2,0 -52.1,-0.117 -78.1,-0.117 -0.5,30.309 -0.5,60.629 -0.5,90.898 26.1,2.11 52.3,3.012 78.7,3.403 -0.2,34.408 -0.2,68.828 -0.3,103.118"
         style="fill:#016aba;fill-opacity:1;fill-rule:nonzero;stroke:none"
         id="path156"
         inkscape:connector-curvature="0" /><path
         d="m 9611.8,991.672 c 38,-0.082 76.01,-0.082 114.1,0 3.4,-25.703 6.29,-51.481 7.81,-77.5 20,37.418 52.38,70.387 95,79.808 46.99,7.3 101.17,6.91 138.87,-26.718 44.82,-38.793 51.82,-101.992 55.82,-157.5 0.9,-111.172 0.1,-222.5 0.3,-333.672 -42.49,-0.121 -84.79,-0.121 -127.1,0 -0.31,101.48 -0.12,202.969 0,304.488 -0.7,30.391 -1.99,62.692 -16.91,89.883 -27.11,38.129 -89.18,30.629 -115.98,-3.871 -18.59,-24.801 -22.62,-56.91 -22.11,-87.031 0.7,-101.09 0.39,-202.18 0.39,-303.387 -42.3,-0.203 -84.57,-0.203 -126.79,-0.203 -1.92,171.91 3.78,343.91 -3.4,515.703"
         style="fill:#016aba;fill-opacity:1;fill-rule:nonzero;stroke:none"
         id="path158"
         inkscape:connector-curvature="0" /><path
         d="m 10614.8,992.379 c 72.6,12.811 155,5.781 212.3,-45.199 59.4,-54.692 75.3,-140.309 76.3,-217.692 -2.9,-69.726 -14.3,-145.816 -64,-198.718 -52.6,-59.211 -140,-71.481 -214.5,-59.211 -65,10.113 -124.9,52.812 -149.6,114.613 -36.5,89.098 -37.3,191.789 -4.3,282.098 22.6,62.39 78.9,110.589 143.8,124.109"
         style="fill:#016aba;fill-opacity:1;fill-rule:nonzero;stroke:none"
         id="path160"
         inkscape:connector-curvature="0" /><path
         d="m 11184.6,983.27 c 24.3,15.71 54.2,13.402 82,14.808 0.4,-38.398 0.1,-76.906 0.8,-115.387 -35.8,0.469 -77.2,2.188 -103.9,-26.101 -30.3,-26.211 -36.5,-68.32 -36.9,-106.211 -0.2,-91.399 0.4,-182.891 -0.1,-274.41 -41.5,0.121 -82.9,0.121 -124.3,-0.078 -2.1,169.488 3,339.179 -3.6,508.48 31.8,13.899 69.1,6.801 103.1,5.699 21.5,-23.281 9.7,-63.082 14.1,-93.199 13.2,35.117 37,66.207 68.8,86.399"
         style="fill:#016aba;fill-opacity:1;fill-rule:nonzero;stroke:none"
         id="path162"
         inkscape:connector-curvature="0" /><path
         d="m 11472.2,914.289 c 25.7,45.781 71.1,88.091 127.3,83.09 55.8,6.481 106.9,-27.891 131.2,-76.801 26.2,28.512 52.2,61.723 91.2,72.383 54.7,11.209 122.6,6.719 157.9,-42.77 42.2,-61.132 35.3,-139.019 35.6,-209.531 -0.2,-88.211 0.1,-176.488 -0.1,-264.691 -41,0.121 -81.8,0 -122.6,0.121 -0.2,104.371 0.2,208.898 0,313.281 -2.3,32.5 -2.1,71.801 -30.3,93.899 -55.3,40.402 -122.6,-24.098 -117.3,-82.891 0.2,-108.117 0.4,-216.207 0.2,-324.41 -42.6,0 -85.1,-0.078 -127.5,0.312 -0.7,113.598 1.1,227.188 -0.8,340.707 1.5,34.571 -19.3,74.371 -56.5,78.473 -48,4.73 -86.1,-40.582 -87.1,-85.902 -1,-111.09 0.1,-222.297 -0.4,-333.387 -42.5,-0.203 -84.9,-0.203 -127.3,-0.082 -1.9,171.789 3.4,343.789 -3.2,515.582 40.7,-0.082 81.4,-0.082 122.1,0 2,-25.781 5,-51.602 7.6,-77.383"
         style="fill:#016aba;fill-opacity:1;fill-rule:nonzero;stroke:none"
         id="path164"
         inkscape:connector-curvature="0" /><path
         d="m 12146.1,961.09 c 76.1,36.48 163.6,45.58 246,28.98 46.8,-10.308 87.4,-45.781 102.4,-91.48 19.8,-57.418 11.4,-118.91 12.9,-178.399 1.4,-81.41 -5,-163.32 7.8,-244.101 -38.2,-0.121 -76.2,-0.121 -114.2,0.082 -3.4,22.609 -5.5,45.308 -6.8,68.117 -17.9,-21.598 -36.3,-43.711 -61.3,-57.109 -60.5,-34.301 -141.6,-23.711 -193.5,21.601 -69,68.008 -57.2,203.598 31,250.078 68.8,36.211 149.1,35.629 224.9,35.629 -5.1,40 -12,91.282 -56.1,106.793 -64,21.289 -130.1,-7.609 -184.7,-40.109 -1.6,33.387 -3.9,66.789 -8.4,99.918"
         style="fill:#016aba;fill-opacity:1;fill-rule:nonzero;stroke:none"
         id="path166"
         inkscape:connector-curvature="0" /><path
         d="m 13375.8,990.891 c 72.4,14.569 155.6,9.569 214.2,-40.313 64.4,-53.398 78.8,-142.308 81.8,-221.207 -5,-68.992 -14.7,-143.992 -63.2,-197.383 -58.3,-64.109 -154.8,-75.816 -235.4,-56.328 -67.1,15.11 -120.7,70.309 -140,135.43 -25.3,86.289 -25.2,182.18 9.3,265.898 22.3,57.301 74.6,98.903 133.3,113.903"
         style="fill:#016aba;fill-opacity:1;fill-rule:nonzero;stroke:none"
         id="path168"
         inkscape:connector-curvature="0" /><path
         d="m 13885.2,915.66 c 26.6,48.012 76.3,87.42 134,81.828 50.1,5.202 99.6,-19.718 125.6,-62.929 27.5,-46.168 27.7,-102.379 28.5,-154.68 -0.2,-101.207 -0.1,-202.5 -0.1,-303.789 -42.1,-0.121 -84,-0.121 -125.8,0 -0.6,107.07 1.2,214.18 -0.9,321.289 -1.1,35.699 -6.9,81.402 -45.9,94.883 -52.5,18.199 -105.8,-28.172 -106.8,-80.782 -5.5,-111.601 -0.9,-223.519 -2.4,-335.199 -42,-0.39 -84.1,-0.191 -126.2,-0.312 -1.1,171.91 1.8,343.793 -2,515.621 37.4,0 74.8,0 112.2,0.199 3.2,-25.309 6.9,-50.617 9.8,-76.129"
         style="fill:#016aba;fill-opacity:1;fill-rule:nonzero;stroke:none"
         id="path170"
         inkscape:connector-curvature="0" /><path
         d="m 14935.4,934.68 c 74.2,88.59 233,85.78 300.4,-9.801 45.8,-65.707 48.7,-149.5 51.5,-226.719 -100.4,-0.469 -200.7,0.699 -300.9,-0.781 3,-50.391 18.8,-109.809 72.1,-128.207 65.1,-16.992 138.1,-8.281 194.7,29.808 1.4,-33.519 4,-66.992 4.7,-100.589 -81.7,-30.7 -175.8,-46.52 -258.6,-10.903 -72.9,29.774 -118.3,104.5 -128.5,180.59 -12.4,91.801 1.6,194.883 64.6,266.602"
         style="fill:#016aba;fill-opacity:1;fill-rule:nonzero;stroke:none"
         id="path172"
         inkscape:connector-curvature="0" /><path
         d="m 15430.4,929.988 c 63.5,66.102 163.3,77.972 249.6,61.184 14.6,-3.793 29.5,-8.602 42.1,-18.211 -0.7,-31.481 -6.2,-62.691 -6.9,-94.289 -39.3,15.699 -82.6,34.598 -125.2,20.109 -50,-11.402 -84.2,-57.89 -91.3,-106.992 -12.5,-70.82 -6.1,-158.828 56.1,-205.43 49.5,-36.597 115,-23.199 167.6,-0.699 2.8,-32.89 4,-65.898 5.7,-98.871 -73.8,-22.418 -156,-29.801 -228.5,0.391 -66.9,26.679 -112.4,92.109 -126.3,161.289 -21.4,95.511 -8.3,205.203 57.1,281.519"
         style="fill:#016aba;fill-opacity:1;fill-rule:nonzero;stroke:none"
         id="path174"
         inkscape:connector-curvature="0" /><g
         id="g176"
         transform="scale(1.02624)"><path
           d="m 16015.5,890.039 c 25.1,34.562 55.5,72.203 100.3,79.709 43.4,5.055 92.6,5.055 127.9,-24.977 44.7,-36.998 56.3,-99.461 54.6,-154.798 -0.4,-108.787 0.2,-217.425 -0.1,-326.173 -41.4,0 -82.8,-0.076 -124.1,0.305 -0.1,108.638 -0.1,217.306 0.1,325.936 0.2,25.355 -4.7,53.712 -26.3,69.886 -33.5,26.69 -86.3,9.942 -106.3,-25.644 -17.5,-31.068 -17.8,-68.104 -18.1,-102.894 0.2,-89.149 0,-178.329 0,-267.471 -39.9,-0.118 -79.6,0 -119.3,-0.118 -1.1,167.515 2.8,335.118 -4.7,502.439 38,0 76.1,0 114.1,0.08 0.6,-25.427 1.1,-50.85 1.9,-76.28"
           style="fill:#016aba;fill-opacity:1;fill-rule:nonzero;stroke:none"
           id="path178"
           inkscape:connector-curvature="0" /></g><g
         id="g180"
         transform="scale(1.05992)"><path
           d="m 16025.6,935.724 c 68.5,12.821 146.3,6.858 201.2,-40.577 58.1,-50.752 72.1,-133.228 73.2,-206.638 -2.4,-66.301 -13.1,-139.42 -61.3,-189.063 -53.2,-58.488 -141.7,-67.628 -215.1,-51.6 -75.2,15.077 -131.5,83.037 -143.7,157.184 -14.6,81.12 -13.9,170.75 27.5,244.348 23.7,44.995 69.8,74.073 118.2,86.346"
           style="fill:#016aba;fill-opacity:1;fill-rule:nonzero;stroke:none"
           id="path182"
           inkscape:connector-curvature="0" /></g><g
         id="g184"
         transform="scale(1.10863)"><path
           d="m 16033.5,893.41 c 63.2,13.53 135.2,9.126 188,-31.743 48.2,-36.965 70.8,-98.129 74.9,-157.039 3.5,-68.997 3.6,-143.871 -36.4,-203.668 -33.7,-57.539 -104.7,-80.72 -168.1,-79.557 -68,-0.56 -141.2,30.02 -171.7,93.972 -35.2,71.456 -36.7,156.164 -20.8,232.899 13.4,68.292 65.7,128.368 134.1,145.136"
           style="fill:#016aba;fill-opacity:1;fill-rule:nonzero;stroke:none"
           id="path186"
           inkscape:connector-curvature="0" /></g><g
         id="g188"
         transform="scale(1.14083)"><path
           d="m 15983.5,846.111 c 36,30.775 87.4,33.661 131.8,23.317 36.1,-9.731 60.2,-39.516 77.5,-70.983 3.6,23.115 -1.3,49.857 12.3,70.124 30.7,2.191 61.9,0.685 92.9,-2.64 -8.2,-113.093 -3.4,-226.596 -4.6,-339.935 -0.9,-74.333 6.6,-154.352 -31.8,-221.498 -32.2,-55.127 -97.5,-82.317 -159.4,-80.3 -58.8,-3.315 -117.1,6.478 -172.1,26.813 2.1,32.012 2.5,64.163 5.2,96.185 55.4,-22.02 115.5,-49.892 176.2,-31.741 41,8.591 67.6,47.766 73,87.313 3.5,29.173 3,58.722 3.2,87.998 -15.6,-23.831 -32.1,-49.621 -59,-61.64 -53.4,-23.728 -122.5,-13.487 -162.2,30.786 -50.7,51.638 -57.2,129.124 -55.5,197.742 1,67.932 17,143.669 72.5,188.459"
           style="fill:#016aba;fill-opacity:1;fill-rule:nonzero;stroke:none"
           id="path190"
           inkscape:connector-curvature="0" /></g><path
         d="m 12986,989.68 c 40.1,4.179 80.7,1.289 121.1,1.91 1,-171.91 0.3,-343.711 0.4,-515.621 -41,0 -82,0.121 -122.8,0 0.6,171.211 -2.1,342.621 1.3,513.711"
         style="fill:#016aba;fill-opacity:1;fill-rule:nonzero;stroke:none"
         id="path192"
         inkscape:connector-curvature="0" /><g
         id="g194"
         transform="scale(1.17183)"><path
           d="m 15914.9,845.993 c 34.9,-0.16 69.8,1.8 104.8,-0.767 11,-11.264 11.6,-28.401 17,-42.668 24.4,-96.501 52.4,-192.008 75.9,-288.781 26.4,101.04 52.1,202.274 77.3,303.551 3.9,9.131 3,24.595 14.9,27.401 31.5,3.501 63.5,1.034 95.2,1.264 -47,-166.91 -101.4,-331.676 -150.7,-498.016 -13.2,-41.898 -27.2,-90.37 -67.6,-114.008 -40.9,-24.731 -91.8,-16.634 -135.7,-6.4 3.2,27.468 6.2,55.042 7.3,82.603 25.3,-7.167 60,-17.571 78.1,8.97 18.6,29.202 32.1,66.57 22.6,101.201 -47.1,141.572 -94.7,283.148 -139.1,425.65"
           style="fill:#016aba;fill-opacity:1;fill-rule:nonzero;stroke:none"
           id="path196"
           inkscape:connector-curvature="0" /></g><path
         d="m 10644.7,903.391 c 34.9,12.89 77.7,1.879 97.7,-30.903 31.6,-50.816 32.6,-114.328 30,-172.418 -5.1,-47.89 -13.2,-105 -57.7,-133.011 -40.6,-26.868 -97.1,-1.989 -114.2,40.82 -25.6,60.391 -28.7,129.18 -17.2,193.211 6.5,39.488 21.5,85.269 61.4,102.301"
         style="fill:#ffffff;fill-opacity:1;fill-rule:nonzero;stroke:none"
         id="path198"
         inkscape:connector-curvature="0" /><path
         d="m 13414.1,903.672 c 27.9,8.898 62.6,6.09 83.7,-16.492 35.4,-35.7 38.6,-89.41 43.3,-136.801 0.7,-49.207 -3.2,-100.82 -24.4,-146.008 -17.8,-38.672 -68.5,-61.883 -107.3,-39.883 -45.1,23.981 -57.3,78.903 -62.4,125.5 -2.8,51.184 -3.6,104.102 14.3,152.891 9.3,25.59 26,51.211 52.8,60.793"
         style="fill:#ffffff;fill-opacity:1;fill-rule:nonzero;stroke:none"
         id="path200"
         inkscape:connector-curvature="0" /><path
         d="m 15028.6,892.059 c 27.3,28.711 75.8,28.211 103.2,-0.071 26.5,-30 27.6,-72.226 33.9,-109.726 -58.6,-0.473 -117.3,-0.703 -175.8,0.117 1.4,39.101 6.1,83.199 38.7,109.68"
         style="fill:#ffffff;fill-opacity:1;fill-rule:nonzero;stroke:none"
         id="path202"
         inkscape:connector-curvature="0" /><g
         id="g204"
         transform="scale(1.05204)"><path
           d="m 16173.1,857.182 c 28.1,10.73 65.1,9.023 86.1,-15.294 28.6,-29.114 34.1,-72.181 38.3,-110.841 2.5,-55.985 2.2,-116.838 -27.7,-166.266 -22.3,-35.534 -74.9,-49.049 -107.8,-20.418 -48.4,40.472 -48.2,110.422 -47.7,168.118 0.7,52.024 8.9,116.374 58.8,144.701"
           style="fill:#ffffff;fill-opacity:1;fill-rule:nonzero;stroke:none"
           id="path206"
           inkscape:connector-curvature="0" /></g><g
         id="g208"
         transform="scale(1.10057)"><path
           d="m 16180.5,819.381 c 28.2,11.539 65,7.525 85.7,-16.926 28,-33.509 32.3,-79.295 32.8,-121.283 0.4,-50.964 1,-106.872 -30.5,-149.922 -30.1,-37.335 -95.1,-32.263 -118.2,9.903 -29.7,53.981 -30.5,119.039 -23.4,178.71 6,36.98 16.8,81.346 53.6,99.518"
           style="fill:#ffffff;fill-opacity:1;fill-rule:nonzero;stroke:none"
           id="path210"
           inkscape:connector-curvature="0" /></g><g
         id="g212"
         transform="scale(1.13337)"><path
           d="m 16177.1,788.951 c 31.9,20.028 76.2,2.036 93.3,-29.296 29.6,-50.627 25.2,-112.318 20,-168.507 -4.3,-47.387 -41.2,-93.641 -92.2,-91.328 -54.4,12.963 -65.5,78.341 -67.6,125.731 0.2,55.763 -7.2,128.448 46.5,163.4"
           style="fill:#ffffff;fill-opacity:1;fill-rule:nonzero;stroke:none"
           id="path214"
           inkscape:connector-curvature="0" /></g><path
         d="m 12249.8,701.172 c 42.9,26.598 95.6,24.098 144.2,25.5 -4,-47.613 -2.6,-99.684 -29.6,-141.402 -28.6,-35.59 -88,-44.18 -123.9,-14.809 -41.1,31.918 -35.2,104.73 9.3,130.711"
         style="fill:#ffffff;fill-opacity:1;fill-rule:nonzero;stroke:none"
         id="path216"
         inkscape:connector-curvature="0" /></g></g></svg>