<?xml version="1.0" encoding="UTF-8" standalone="no"?>
<svg
   xmlns:dc="http://purl.org/dc/elements/1.1/"
   xmlns:cc="http://creativecommons.org/ns#"
   xmlns:rdf="http://www.w3.org/1999/02/22-rdf-syntax-ns#"
   xmlns:svg="http://www.w3.org/2000/svg"
   xmlns="http://www.w3.org/2000/svg"
   viewBox="0 0 427.09332 136.06667"
   height="136.06667"
   width="427.09332"
   xml:space="preserve"
   id="svg2"
   version="1.1"><metadata
     id="metadata8"><rdf:RDF><cc:Work
         rdf:about=""><dc:format>image/svg+xml</dc:format><dc:type
           rdf:resource="http://purl.org/dc/dcmitype/StillImage" /><dc:title></dc:title></cc:Work></rdf:RDF></metadata><defs
     id="defs6" /><g
     transform="matrix(1.3333333,0,0,-1.3333333,0,136.06667)"
     id="g10"><g
       transform="scale(0.1)"
       id="g12"><path
         id="path14"
         style="fill:#231f20;fill-opacity:1;fill-rule:nonzero;stroke:none"
         d="M 465.629,588.422 C 459.91,568.648 452.871,545.754 425.148,519.723 400.07,496.367 358.68,469.855 279.469,469.855 c -110.473,0 -187.0471,58.833 -187.0471,169.778 0,119.453 93.2891,167.957 191.4531,167.957 35.656,0 129.273,-8.543 170.547,-84.57 L 376.742,698 c -8.375,13.477 -33.113,48.422 -93.422,48.422 -70.418,0 -109.918,-47.074 -109.918,-107.707 0,-69.149 53.703,-105.988 112.68,-105.988 67.328,0 87.574,35.921 97.684,55.246 l 81.863,0.449 v 0" /><path
         id="path16"
         style="fill:#231f20;fill-opacity:1;fill-rule:nonzero;stroke:none"
         d="m 499.656,797.691 h 77.891 V 675.555 H 761.574 V 797.691 H 839.48 V 480.637 h -77.906 v 136.07 H 577.547 v -136.07 h -77.891 v 317.054 0" /><path
         id="path18"
         style="fill:#231f20;fill-opacity:1;fill-rule:nonzero;stroke:none"
         d="m 1075.9,700.25 c -2.21,4.02 -3.96,8.543 -5.29,12.578 -1.32,4.039 -2.2,8.078 -2.65,12.567 -1.31,-4.04 -2.19,-7.645 -3.06,-11.211 -1.76,-4.055 -3.08,-8.094 -4.86,-12.137 l -43.36,-96.016 h 100.33 l -41.11,94.219 z m -49.29,97.441 h 84.07 l 150.07,-317.054 h -87.15 l -30.8,69.254 H 991.461 l -30,-69.254 h -84.957 l 150.106,317.054 v 0" /><path
         id="path20"
         style="fill:#231f20;fill-opacity:1;fill-rule:nonzero;stroke:none"
         d="m 1300.79,797.691 h 77.92 V 539.016 h 156.93 v -58.379 h -234.85 v 317.054 0" /><path
         id="path22"
         style="fill:#231f20;fill-opacity:1;fill-rule:nonzero;stroke:none"
         d="m 1582.51,797.691 h 112.23 l 80.99,-193.988 c 8.39,-20.676 11.45,-29.199 15.84,-47.168 3.07,13.469 5.71,21.543 14.54,43.582 l 80.97,197.574 h 111.33 V 480.645 h -73.49 v 221.859 c 0,9.414 1.33,17.504 3.09,29.633 -3.09,-9.43 -4.39,-13.032 -8.81,-24.25 l -92.85,-227.242 h -70.88 l -92.85,222.753 c -4.83,12.137 -5.71,15.707 -9.24,28.739 1.32,-13.469 1.75,-16.168 2.63,-28.301 V 480.645 h -73.5 v 317.046 0" /><path
         id="path24"
         style="fill:#231f20;fill-opacity:1;fill-rule:nonzero;stroke:none"
         d="m 2070.46,797.691 h 289.59 V 740.68 H 2148.37 V 669.266 H 2334.8 V 613.133 H 2148.37 V 537.23 h 220.49 v -56.585 h -298.4 v 317.046 0" /><path
         id="path26"
         style="fill:#231f20;fill-opacity:1;fill-rule:nonzero;stroke:none"
         d="m 2853.03,577.316 c 18.23,-37.867 62.9,-48.742 105.15,-47.976 18.91,0.324 78.28,4.519 77.62,43.133 -0.4,22.906 -22.05,27.925 -38.82,30.754 -12.84,2.468 -76.79,11.222 -91.36,13.652 -28.7,4.871 -101.08,17.504 -102.33,89.348 -0.28,15.718 3.86,31.964 11.56,45.136 25.19,43.117 82.25,55.36 131.55,56.227 45.29,0.805 80.18,-5.297 112.61,-22.695 31.99,-16.946 46.03,-40.04 52.34,-50.258 l -73.62,-20.176 c -2.71,4.891 -9.03,16.449 -27.71,25.551 -20.84,9.968 -47.71,11.289 -62.65,10.996 -34.33,-0.59 -69.43,-7.969 -68.93,-38.035 0.37,-20.676 18.52,-25.739 41.91,-30.696 12.79,-2.484 76.34,-12.129 90.91,-15.019 36.22,-6.07 97.6,-18.445 98.81,-88.063 1.75,-101.918 -110.17,-107.699 -155.55,-108.336 -51.08,-0.711 -130.57,6.684 -172.01,86.325 l 70.52,20.132 v 0" /><path
         id="path28"
         style="fill:#231f20;fill-opacity:1;fill-rule:nonzero;stroke:none"
         d="m 2505.24,664.137 h 124.1 c 16.75,0 46.66,2.238 46.66,37.711 0,6.293 -0.9,17.07 -6.15,24.711 -5.72,7.64 -13.21,15.269 -44.02,15.269 h -120.59 v -77.691 z m -77.9,133.39 h 213.89 c 35.2,0 67.33,-3.156 93.3,-33.691 15.86,-18.856 20.25,-42.668 20.25,-61.07 0,-24.262 -7.92,-53.008 -29.92,-70.063 -16.71,-13.031 -38.3,-17.535 -50.64,-19.758 l 94.19,-132.484 h -89.43 l -85.27,127.543 h -88.47 V 480.461 h -77.9 v 317.066 0" /><path
         id="path30"
         style="fill:#231f20;fill-opacity:1;fill-rule:nonzero;stroke:none"
         d="m 256.027,332.211 v -67.895 c -0.168,-11.707 -0.339,-23.418 -6.925,-34.441 -12.836,-21.035 -39.356,-22.062 -44.418,-22.062 -8.957,0 -19.598,2.238 -27.704,6.542 -22.972,12.075 -22.972,33.43 -22.8,49.961 v 67.895 h 30.062 v -75.813 c 0,-6.191 0.172,-11.367 2.196,-15.156 3.71,-6.387 11.824,-8.281 19.253,-8.281 20.27,0 20.27,14.141 20.442,23.613 v 75.637 h 29.894" /><path
         id="path32"
         style="fill:#231f20;fill-opacity:1;fill-rule:nonzero;stroke:none"
         d="m 300.43,332.211 h 29.222 l 25.84,-44.797 c 9.461,-17.051 12.328,-22.559 17.903,-33.254 l -1.348,78.051 H 400.59 V 210.566 h -29.223 l -22.297,38.43 c -10.808,18.098 -12.836,21.887 -20.941,38.074 l 0.844,-76.504 H 300.43 v 121.645" /><path
         id="path34"
         style="fill:#231f20;fill-opacity:1;fill-rule:nonzero;stroke:none"
         d="M 475.574,332.211 V 210.566 h -29.726 v 121.645 h 29.726" /><path
         id="path36"
         style="fill:#231f20;fill-opacity:1;fill-rule:nonzero;stroke:none"
         d="m 583.32,332.211 h 31.762 L 573.699,210.566 h -30.402 l -40.879,121.645 h 31.75 l 24.664,-86.496 24.488,86.496" /><path
         id="path38"
         style="fill:#231f20;fill-opacity:1;fill-rule:nonzero;stroke:none"
         d="m 641.93,332.211 h 88.164 v -23.606 h -58.442 v -22.058 h 54.559 v -23.078 h -54.559 v -28.953 h 63.684 v -23.95 H 641.93 v 121.645" /><path
         id="path40"
         style="fill:#231f20;fill-opacity:1;fill-rule:nonzero;stroke:none"
         d="m 803.063,309.477 v -32.914 h 24.667 c 4.211,0.167 17.895,0.507 17.895,16.71 0,15.497 -10.98,16.028 -17.23,16.204 z m -29.899,22.734 h 53.715 c 12.496,-0.168 28.031,-0.344 39.019,-12.402 5.571,-6.379 9.457,-16.016 9.457,-27.043 0,-24.485 -16.386,-30.508 -24.496,-33.614 l 27.528,-48.586 h -32.934 l -23.64,43.43 h -18.75 v -43.43 h -29.899 v 121.645" /><path
         id="path42"
         style="fill:#231f20;fill-opacity:1;fill-rule:nonzero;stroke:none"
         d="m 927.863,247.102 c 3.043,-3.45 5.578,-6.204 11.489,-9.473 7.937,-4.324 16.043,-5.859 22.972,-5.859 11.824,0 21.961,5.683 21.961,14.121 0,9.636 -11.992,11.191 -20.781,12.402 -6.586,0.859 -13.172,1.727 -19.582,3.105 -7.274,1.551 -32.102,6.883 -32.102,33.086 0,31.36 27.364,40.664 47.973,40.664 27.523,0 42.397,-13.625 52.697,-23.093 l -21.963,-16.02 c -3.711,3.789 -7.089,7.055 -11.816,9.817 -4.227,2.414 -11.82,5.339 -19.426,5.339 -11.824,0 -17.734,-6.89 -17.734,-12.742 0,-9.304 10.133,-10.691 15.195,-11.379 12.672,-1.55 29.727,-4.824 36.484,-7.234 13.68,-5.164 20.61,-16.023 20.61,-29.816 0,-8.778 -3.21,-18.434 -9.46,-25.848 -10.806,-12.754 -28.032,-16.359 -44.763,-16.359 -33.605,0 -46.945,15.851 -54.379,24.64 l 22.625,14.649" /><path
         id="path44"
         style="fill:#231f20;fill-opacity:1;fill-rule:nonzero;stroke:none"
         d="M 1083.25,332.211 V 210.566 h -29.73 v 121.645 h 29.73" /><path
         id="path46"
         style="fill:#231f20;fill-opacity:1;fill-rule:nonzero;stroke:none"
         d="m 1111.45,332.387 h 91.88 v -24.121 h -30.9 v -97.7 h -29.9 v 97.7 h -31.08 v 24.121" /><path
         id="path48"
         style="fill:#231f20;fill-opacity:1;fill-rule:nonzero;stroke:none"
         d="m 1220.73,332.211 h 34.28 l 25.68,-41.699 c 1.52,3.445 1.85,4.148 4.89,9.129 l 20.44,32.57 h 33.95 l -45.09,-64.094 v -57.551 h -29.4 v 56.692 l -44.75,64.953" /><path
         id="path50"
         style="fill:#231f20;fill-opacity:1;fill-rule:nonzero;stroke:none"
         d="m 1503.13,301.723 c -5.07,5.515 -12.84,8.945 -20.95,8.945 -18.06,0 -29.55,-16.184 -29.55,-38.234 0,-28.954 15.87,-39.637 29.89,-39.637 14.19,0 29.39,10.34 30.24,35.848 0.51,12.746 -2.87,25.671 -9.63,33.078 z m -20.61,-94.602 c -37.83,0 -59.28,29.629 -59.28,64.774 0,32.921 20.44,64.101 58.78,64.101 7.09,0 14.52,-1.023 21.78,-3.609 36.49,-12.922 38.85,-53.418 38.85,-61.684 0,-21.023 -9.45,-39.976 -22.64,-50.828 -11.65,-9.824 -25.15,-12.754 -37.49,-12.754" /><path
         id="path52"
         style="fill:#231f20;fill-opacity:1;fill-rule:nonzero;stroke:none"
         d="M 1667.96,332.211 V 308.77 h -61.8 v -25.489 h 56.93 V 259.68 h -56.93 v -49.114 h -29.73 v 121.645 h 91.53" /><path
         id="path54"
         style="fill:#231f20;fill-opacity:1;fill-rule:nonzero;stroke:none"
         d="m 1748.01,332.387 h 91.89 v -24.121 h -30.91 v -97.7 h -29.88 v 97.7 h -31.1 v 24.121" /><path
         id="path56"
         style="fill:#231f20;fill-opacity:1;fill-rule:nonzero;stroke:none"
         d="m 1868.45,332.211 h 88.16 v -23.606 h -58.43 v -22.058 h 54.54 v -23.078 h -54.54 v -28.953 h 63.67 v -23.95 h -93.4 v 121.645" /><path
         id="path58"
         style="fill:#231f20;fill-opacity:1;fill-rule:nonzero;stroke:none"
         d="m 2099.84,238.305 c -4.39,-7.063 -8.61,-13.957 -18.08,-20.664 -5.07,-3.625 -16.72,-10.696 -33.27,-10.696 -31.59,0 -57.09,23.438 -57.09,64.618 0,36.015 23.98,64.433 57.77,64.433 13.67,0 25.84,-4.812 34.8,-12.051 8.29,-6.715 12.17,-13.445 15.53,-19.468 l -23.65,-12.051 c -1.68,3.953 -3.72,8.086 -8.94,12.554 -5.74,4.661 -11.5,6.047 -16.4,6.047 -19.23,0 -29.38,-18.261 -29.38,-38.593 0,-26.719 13.35,-39.981 29.38,-39.981 15.56,0 21.81,11.027 25.84,18.098 l 23.49,-12.246" /><path
         id="path60"
         style="fill:#231f20;fill-opacity:1;fill-rule:nonzero;stroke:none"
         d="M 2231.23,332.211 V 210.566 h -29.88 v 51.86 h -43.58 v -51.86 h -30.07 v 121.645 h 30.07 v -43.938 h 43.58 v 43.938 h 29.88" /><path
         id="path62"
         style="fill:#231f20;fill-opacity:1;fill-rule:nonzero;stroke:none"
         d="m 2276.5,332.211 h 29.23 l 25.84,-44.797 c 9.44,-17.051 12.33,-22.559 17.89,-33.254 l -1.33,78.051 h 28.54 V 210.566 h -29.22 l -22.31,38.43 c -10.81,18.098 -12.83,21.887 -20.94,38.074 l 0.84,-76.504 h -28.54 v 121.645" /><path
         id="path64"
         style="fill:#231f20;fill-opacity:1;fill-rule:nonzero;stroke:none"
         d="m 2494.03,301.723 c -5.06,5.515 -12.82,8.945 -20.94,8.945 -18.08,0 -29.57,-16.184 -29.57,-38.234 0,-28.954 15.88,-39.637 29.91,-39.637 14.17,0 29.39,10.34 30.23,35.848 0.49,12.746 -2.86,25.671 -9.63,33.078 z m -20.6,-94.602 c -37.83,0 -59.3,29.629 -59.3,64.774 0,32.921 20.44,64.101 58.77,64.101 7.12,0 14.55,-1.023 21.81,-3.609 36.48,-12.922 38.83,-53.418 38.83,-61.684 0,-21.023 -9.44,-39.976 -22.61,-50.828 -11.65,-9.824 -25.16,-12.754 -37.5,-12.754" /><path
         id="path66"
         style="fill:#231f20;fill-opacity:1;fill-rule:nonzero;stroke:none"
         d="m 2567.49,332.387 h 29.73 v -96.145 h 46.63 v -25.676 h -76.36 v 121.821" /><path
         id="path68"
         style="fill:#231f20;fill-opacity:1;fill-rule:nonzero;stroke:none"
         d="m 2746.39,301.723 c -5.07,5.515 -12.83,8.945 -20.94,8.945 -18.08,0 -29.57,-16.184 -29.57,-38.234 0,-28.954 15.87,-39.637 29.91,-39.637 14.17,0 29.39,10.34 30.23,35.848 0.5,12.746 -2.86,25.671 -9.63,33.078 z m -20.6,-94.602 c -37.84,0 -59.3,29.629 -59.3,64.774 0,32.921 20.45,64.101 58.78,64.101 7.11,0 14.53,-1.023 21.8,-3.609 36.47,-12.922 38.83,-53.418 38.83,-61.684 0,-21.023 -9.44,-39.976 -22.61,-50.828 -11.66,-9.824 -25.16,-12.754 -37.5,-12.754" /><path
         id="path70"
         style="fill:#231f20;fill-opacity:1;fill-rule:nonzero;stroke:none"
         d="m 2903.97,221.938 c -4.9,-4.641 -15.03,-14.125 -35.13,-14.125 -33.27,0 -53.71,27.558 -53.71,63.41 0,39.101 24.83,65.117 58.77,65.117 31.59,0 46.97,-20.672 52.53,-28.074 l -22.65,-13.95 c -4.19,6.536 -11.12,17.219 -27.67,17.219 -22.65,0 -31.25,-19.109 -31.25,-39.465 0,-13.777 3.7,-24.968 9.44,-30.996 4.57,-5.008 12.68,-8.797 21.81,-8.797 5.41,0 11.46,1.387 16.36,4.649 7.78,5.168 8.8,11.726 9.64,18.094 h -26.69 v 23.097 h 51.85 v -67.551 h -23.3 v 11.372" /><path
         id="path72"
         style="fill:#231f20;fill-opacity:1;fill-rule:nonzero;stroke:none"
         d="m 2943.71,332.211 h 34.28 l 25.67,-41.699 c 1.52,3.445 1.86,4.148 4.9,9.129 l 20.44,32.57 h 33.95 l -45.1,-64.094 v -57.551 h -29.39 v 56.692 l -44.75,64.953" /></g></g></svg>