<?xml version="1.0" encoding="UTF-8" standalone="no"?>
<!-- Created with Inkscape (http://www.inkscape.org/) -->

<svg
   xmlns:dc="http://purl.org/dc/elements/1.1/"
   xmlns:cc="http://creativecommons.org/ns#"
   xmlns:rdf="http://www.w3.org/1999/02/22-rdf-syntax-ns#"
   xmlns:svg="http://www.w3.org/2000/svg"
   xmlns="http://www.w3.org/2000/svg"
   xmlns:sodipodi="http://sodipodi.sourceforge.net/DTD/sodipodi-0.dtd"
   xmlns:inkscape="http://www.inkscape.org/namespaces/inkscape"
   version="1.1"
   id="svg2"
   xml:space="preserve"
   width="2624.1868"
   height="472.07999"
   viewBox="0 0 2624.1868 472.07999"
   sodipodi:docname="h-brs.svg"
   inkscape:version="0.92.5 (2060ec1f9f, 2020-04-08)"><metadata
     id="metadata8"><rdf:RDF><cc:Work
         rdf:about=""><dc:format>image/svg+xml</dc:format><dc:type
           rdf:resource="http://purl.org/dc/dcmitype/StillImage" /><dc:title></dc:title></cc:Work></rdf:RDF></metadata><defs
     id="defs6" /><sodipodi:namedview
     pagecolor="#ffffff"
     bordercolor="#666666"
     borderopacity="1"
     objecttolerance="10"
     gridtolerance="10"
     guidetolerance="10"
     inkscape:pageopacity="0"
     inkscape:pageshadow="2"
     inkscape:window-width="956"
     inkscape:window-height="1041"
     id="namedview4"
     showgrid="false"
     inkscape:zoom="0.15166603"
     inkscape:cx="217.58332"
     inkscape:cy="236.03999"
     inkscape:window-x="1928"
     inkscape:window-y="1117"
     inkscape:window-maximized="0"
     inkscape:current-layer="g10" /><g
     id="g10"
     inkscape:groupmode="layer"
     inkscape:label="ink_ext_XXXXXX"
     transform="matrix(1.3333333,0,0,-1.3333333,0,472.08)"><g
       id="g12"
       transform="scale(0.1)"><path
         d="m 5034.35,2478.05 c 0,-581.31 -471.25,-1052.54 -1052.56,-1052.54 -581.3,0 -1052.54,471.23 -1052.54,1052.54 0,581.31 471.24,1052.55 1052.54,1052.55 581.31,0 1052.56,-471.24 1052.56,-1052.55"
         style="fill:#00adef;fill-opacity:1;fill-rule:nonzero;stroke:none"
         id="path14"
         inkscape:connector-curvature="0" /><path
         d="m 5034.35,2478.05 c 0,-581.31 -471.25,-1052.54 -1052.56,-1052.54 -581.3,0 -1052.54,471.23 -1052.54,1052.54 0,581.31 471.24,1052.55 1052.54,1052.55 581.31,0 1052.56,-471.24 1052.56,-1052.55 z"
         style="fill:none;stroke:#00adef;stroke-width:20;stroke-linecap:butt;stroke-linejoin:miter;stroke-miterlimit:4;stroke-dasharray:none;stroke-opacity:1"
         id="path16"
         inkscape:connector-curvature="0" /><path
         d="m 7129.59,3314.07 h 140.01 v -282.02 h 280.01 v 282.02 h 140.01 v -698.05 h -140.01 v 306.03 H 7269.6 v -306.03 h -140.01 v 698.05"
         style="fill:#231f20;fill-opacity:1;fill-rule:nonzero;stroke:none"
         id="path18"
         inkscape:connector-curvature="0" /><path
         d="m 8075.59,2708.03 c 103.01,0 130.01,92.01 130.01,178.01 0,79.01 -42.01,153.01 -130.01,153.01 -87.01,0 -129.01,-76 -129.01,-153.01 0,-85 27,-178.01 129.01,-178.01 z m 0,435.02 c 153.01,0 270.02,-103 270.02,-273.01 0,-148.01 -99.01,-266.02 -270.02,-266.02 -170.01,0 -269.02,118.01 -269.02,266.02 0,170.01 117.01,273.01 269.02,273.01"
         style="fill:#231f20;fill-opacity:1;fill-rule:nonzero;stroke:none"
         id="path20"
         inkscape:connector-curvature="0" /><path
         d="m 8784.58,3020.05 c -23.99,11 -50,19 -91,19 -83,0 -136.01,-66 -136.01,-163.01 0,-95 45.01,-168.01 139.01,-168.01 38,0 80.01,14 103.01,24 l 6,-111.01 c -39,-12 -79.01,-17 -134.01,-17 -169.01,0 -254.02,115.02 -254.02,272.02 0,149.01 88.01,267.01 249.02,267.01 54,0 93,-6 130.01,-17 l -12.01,-106"
         style="fill:#231f20;fill-opacity:1;fill-rule:nonzero;stroke:none"
         id="path22"
         inkscape:connector-curvature="0" /><path
         d="m 8894.55,3366.07 h 134.01 v -305.02 h 2 c 34,50 92,82 162.01,82 122.01,0 175.01,-86 175.01,-202.01 v -325.02 h -134.01 v 275.02 c 0,63.01 -1,148.01 -87,148.01 -97.01,0 -118.01,-105.01 -118.01,-171.01 v -252.02 h -134.01 v 750.05"
         style="fill:#231f20;fill-opacity:1;fill-rule:nonzero;stroke:none"
         id="path24"
         inkscape:connector-curvature="0" /><path
         d="m 9811.56,3023.05 c -41,14 -71.01,22 -120.01,22 -36,0 -79,-13 -79,-57 0,-82.01 233.01,-30 233.01,-216.01 0,-120.01 -107,-168.02 -216.01,-168.02 -51.01,0 -103.01,9.01 -152.01,22 l 8,110.01 c 42,-21 86.01,-34 132.01,-34 34,0 88,13 88,63.01 0,101 -233.01,32 -233.01,218.01 0,111 97.01,160 202.01,160 63,0 104.01,-10 146.01,-18.99 l -9,-101.01"
         style="fill:#231f20;fill-opacity:1;fill-rule:nonzero;stroke:none"
         id="path26"
         inkscape:connector-curvature="0" /><path
         d="m 10283.5,3020.05 c -24,11 -50,19 -91,19 -83,0 -136,-66 -136,-163.01 0,-95 45,-168.01 139,-168.01 38,0 80,14 103,24 l 6,-111.01 c -39,-12 -79,-17 -134,-17 -169,0 -253.97,115.02 -253.97,272.02 0,149.01 87.97,267.01 248.97,267.01 54,0 93,-6 130.1,-17 l -12.1,-106"
         style="fill:#231f20;fill-opacity:1;fill-rule:nonzero;stroke:none"
         id="path28"
         inkscape:connector-curvature="0" /><path
         d="m 10393.5,3366.07 h 134 v -305.02 h 2 c 34,50 92,82 162,82 122,0 175,-86 175,-202.01 v -325.02 h -134 v 275.02 c 0,63.01 -1,148.01 -87,148.01 -97,0 -118,-105.01 -118,-171.01 v -252.02 h -134 v 750.05"
         style="fill:#231f20;fill-opacity:1;fill-rule:nonzero;stroke:none"
         id="path30"
         inkscape:connector-curvature="0" /><path
         d="m 11477.5,2616.02 h -127 v 70.01 h -2 c -41,-50.01 -99,-82.01 -169,-82.01 -122,0 -175,86.01 -175,202.02 v 325.01 h 134 v -275.01 c 0,-63 1,-148.01 87,-148.01 97,0 118,105.01 118,171.01 v 252.01 h 134 v -515.03"
         style="fill:#231f20;fill-opacity:1;fill-rule:nonzero;stroke:none"
         id="path32"
         inkscape:connector-curvature="0" /><path
         d="m 11618.5,3366.07 h 134 v -750.05 h -134 v 750.05"
         style="fill:#231f20;fill-opacity:1;fill-rule:nonzero;stroke:none"
         id="path34"
         inkscape:connector-curvature="0" /><path
         d="m 12216.5,2924.04 c -4,65.01 -34,121.01 -109,121.01 -75,0 -113,-52 -119,-121.01 z m 90,-279.01 c -49,-27 -105,-41.01 -177,-41.01 -170,0 -269,98.01 -269,267.02 0,149.01 79,272.01 239,272.01 191,0 245,-131 245,-311.01 h -356 c 6,-83 64,-130.01 147,-130.01 65,0 121,24 171,52.01 v -109.01"
         style="fill:#231f20;fill-opacity:1;fill-rule:nonzero;stroke:none"
         id="path36"
         inkscape:connector-curvature="0" /><path
         d="m 7269.6,1526.03 h 66 c 65.01,0 144.01,16 144.01,97.01 0,91 -74,105 -144.01,105 h -66 z m 0,306.02 h 57 c 59.01,0 132.01,13 132.01,85.01 0,81 -71.01,87 -135.01,87 h -54 z m -140.01,282.02 h 244.01 c 90.01,0 225.02,-26 225.02,-179.01 0,-83.01 -56.01,-141.01 -139.01,-156.01 v -2 c 95,-9 160.01,-73.01 160.01,-159.01 0,-176.01 -158.01,-202.01 -246.02,-202.01 h -244.01 v 698.04"
         style="fill:#231f20;fill-opacity:1;fill-rule:nonzero;stroke:none"
         id="path38"
         inkscape:connector-curvature="0" /><path
         d="m 7964.59,1508.03 c 103.01,0 130.01,92 130.01,178.01 0,79.01 -42,153.01 -130.01,153.01 -87,0 -129,-76 -129,-153.01 0,-85.01 27,-178.01 129,-178.01 z m 0,435.03 c 153.01,0 270.02,-103.01 270.02,-273.02 0,-148.01 -99,-266.02 -270.02,-266.02 -170.01,0 -269.01,118.01 -269.01,266.02 0,170.01 117,273.02 269.01,273.02"
         style="fill:#231f20;fill-opacity:1;fill-rule:nonzero;stroke:none"
         id="path40"
         inkscape:connector-curvature="0" /><path
         d="m 8339.58,1931.05 h 127 v -70 h 2 c 42.01,59 99.01,82.01 169.01,82.01 122.01,0 175.01,-86.01 175.01,-202.02 v -325.01 h -134 v 275.01 c 0,63.01 -1,148.01 -87.01,148.01 -97.01,0 -118.01,-105.01 -118.01,-171.01 v -252.01 h -134 v 515.02"
         style="fill:#231f20;fill-opacity:1;fill-rule:nonzero;stroke:none"
         id="path42"
         inkscape:connector-curvature="0" /><path
         d="m 8950.57,1931.05 h 127 v -70 h 2.01 c 42,59 99,82.01 169,82.01 122.01,0 175.01,-86.01 175.01,-202.02 v -325.01 h -134.01 v 275.01 c 0,63.01 -0.99,148.01 -87,148.01 -97,0 -118,-105.01 -118,-171.01 v -252.01 h -134.01 v 515.02"
         style="fill:#231f20;fill-opacity:1;fill-rule:nonzero;stroke:none"
         id="path44"
         inkscape:connector-curvature="0" /><path
         d="m 9527.55,1630.03 v 110.01 h 263.02 v -110.01 h -263.02"
         style="fill:#231f20;fill-opacity:1;fill-rule:nonzero;stroke:none"
         id="path46"
         inkscape:connector-curvature="0" /><path
         d="m 10034.6,1816.05 h 46 c 69,0 148,10 148,97.01 0,84 -78,91 -148,91 h -46 z m -140.05,298.02 h 151.05 c 150,0 329,5 329,-189.01 0,-82.01 -55,-150.01 -144,-162.01 v -2.01 c 38,-2.99 60,-41 74,-72 l 112,-273.01 h -156 l -84,218.01 c -20,52 -38,72 -97,72 h -45 v -290.01 h -140.05 v 698.04"
         style="fill:#231f20;fill-opacity:1;fill-rule:nonzero;stroke:none"
         id="path48"
         inkscape:connector-curvature="0" /><path
         d="m 10505.5,2166.07 h 134 v -305.02 h 2 c 34.1,50 92.1,82.01 162.1,82.01 122,0 175,-86.01 175,-202.02 v -325.01 h -134 v 275.01 c 0,63.01 -1,148.01 -87,148.01 -97,0 -118.1,-105.01 -118.1,-171.01 v -252.01 h -134 v 750.04"
         style="fill:#231f20;fill-opacity:1;fill-rule:nonzero;stroke:none"
         id="path50"
         inkscape:connector-curvature="0" /><path
         d="m 11439.6,1724.04 c -4,65.01 -34,121.01 -109,121.01 -75,0 -113.1,-52 -119.1,-121.01 z m 90,-279.01 c -49,-27.01 -105,-41.01 -177,-41.01 -170.1,0 -269.1,98.01 -269.1,267.02 0,149.01 79,272.02 239.1,272.02 191,0 245,-131.01 245,-311.02 h -356.1 c 6,-83 64.1,-130.01 147,-130.01 65.1,0 121.1,24 171.1,52.01 v -109.01"
         style="fill:#231f20;fill-opacity:1;fill-rule:nonzero;stroke:none"
         id="path52"
         inkscape:connector-curvature="0" /><path
         d="m 11675.5,1931.05 h 134 v -515.02 h -134 z m 0,222.02 h 134 v -128.01 h -134 v 128.01"
         style="fill:#231f20;fill-opacity:1;fill-rule:nonzero;stroke:none"
         id="path54"
         inkscape:connector-curvature="0" /><path
         d="m 11950.5,1931.05 h 127 v -70 h 2 c 42,59 99,82.01 169,82.01 122.1,0 175.1,-86.01 175.1,-202.02 v -325.01 h -134 v 275.01 c 0,63.01 -1.1,148.01 -87.1,148.01 -97,0 -118,-105.01 -118,-171.01 v -252.01 h -134 v 515.02"
         style="fill:#231f20;fill-opacity:1;fill-rule:nonzero;stroke:none"
         id="path56"
         inkscape:connector-curvature="0" /><path
         d="m 12527.5,1630.03 v 110.01 h 263 v -110.01 h -263"
         style="fill:#231f20;fill-opacity:1;fill-rule:nonzero;stroke:none"
         id="path58"
         inkscape:connector-curvature="0" /><path
         d="m 13281.5,1986.06 c -44,19 -93,30 -142,30 -48,0 -110,-21 -110,-97 0,-121.01 306,-70.01 306,-304.03 0,-153 -121,-211.01 -262,-211.01 -76,0 -110,10 -179,27.01 l 13,126.01 c 48,-26.01 103,-43 158,-43 53,0 124,26.99 124,90 0,133.01 -306,78 -306,309.02 0,156.01 121,213.01 244,213.01 60,0 116,-8 167,-25 l -13,-115.01"
         style="fill:#231f20;fill-opacity:1;fill-rule:nonzero;stroke:none"
         id="path60"
         inkscape:connector-curvature="0" /><path
         d="m 13453.5,1931.05 h 134 v -515.02 h -134 z m 0,222.02 h 134 v -128.01 h -134 v 128.01"
         style="fill:#231f20;fill-opacity:1;fill-rule:nonzero;stroke:none"
         id="path62"
         inkscape:connector-curvature="0" /><path
         d="m 14051.5,1724.04 c -4,65.01 -34,121.01 -109,121.01 -75,0 -113,-52 -119,-121.01 z m 90,-279.01 c -49,-27.01 -105,-41.01 -177,-41.01 -170,0 -269,98.01 -269,267.02 0,149.01 79,272.02 239,272.02 191,0 245,-131.01 245,-311.02 h -356 c 6,-83 64,-130.01 147,-130.01 65,0 121,24 171,52.01 v -109.01"
         style="fill:#231f20;fill-opacity:1;fill-rule:nonzero;stroke:none"
         id="path64"
         inkscape:connector-curvature="0" /><path
         d="m 14623.5,1679.04 c 0,88.01 -34,160.01 -112,160.01 -91,0 -120,-84.01 -120,-163.01 0,-70.01 37,-156.01 114,-156.01 84,0 118,73.01 118,159.01 z m 134,252.01 v -465.02 c 0,-140.01 -56,-272.01 -272,-272.01 -53,0 -114,7.99 -178,35 l 11,114 c 41,-22 108,-45 150,-45 148,0 155,111 155,200.01 h -2 c -25,-44 -85,-82 -160,-82 -152,0 -210,122 -210,260.01 0,124.01 64,267.02 218,267.02 68,0 121,-23.01 158,-82.01 h 2 v 70 h 128"
         style="fill:#231f20;fill-opacity:1;fill-rule:nonzero;stroke:none"
         id="path66"
         inkscape:connector-curvature="0" /><path
         d="m 7635.62,460.031 c 0,-206.011 -151.01,-256.011 -253.02,-256.011 -102,0 -253.01,50 -253.01,256.011 V 914.07 h 69 V 460.031 c 0,-114 63.01,-196.011 184.01,-196.011 121.01,0 184.02,82.011 184.02,196.011 V 914.07 h 69 V 460.031"
         style="fill:#231f20;fill-opacity:1;fill-rule:nonzero;stroke:none"
         id="path68"
         inkscape:connector-curvature="0" /><path
         d="m 7794.58,606.039 c 0,39 0,79.012 -4,120.012 h 61.01 v -91.012 h 1.99 c 21,46.012 59.01,103.012 165.01,103.012 126.01,0 174.02,-84 174.02,-196.012 V 216.02 h -63.01 v 310.019 c 0,96.012 -34,158.012 -121.01,158.012 -115,0 -151.01,-101.012 -151.01,-186.012 V 216.02 h -63 v 390.019"
         style="fill:#231f20;fill-opacity:1;fill-rule:nonzero;stroke:none"
         id="path70"
         inkscape:connector-curvature="0" /><path
         d="m 8350.58,726.051 h 63 V 216.02 h -63 z m 63,136.008 h -63 v 84.011 h 63 v -84.011"
         style="fill:#231f20;fill-opacity:1;fill-rule:nonzero;stroke:none"
         id="path72"
         inkscape:connector-curvature="0" /><path
         d="m 8749.58,216.02 h -74.01 l -173.01,510.031 h 69 L 8712.57,285.02 h 2.01 l 148,441.031 h 66 l -179,-510.031"
         style="fill:#231f20;fill-opacity:1;fill-rule:nonzero;stroke:none"
         id="path74"
         inkscape:connector-curvature="0" /><path
         d="m 9327.57,507.039 c 0,89 -36,177.012 -130.01,177.012 -93,0 -150.01,-93.012 -150.01,-177.012 z m 31,-275.008 c -44,-18.011 -101.01,-28.011 -148.01,-28.011 -169.01,0 -232.02,114 -232.02,267.019 0,156.012 86.01,267.012 215.02,267.012 144.01,0 203.01,-116 203.01,-253.02 v -32 h -349.02 c 0,-108.011 58,-195.011 168.01,-195.011 46,0 113.01,19.011 143.01,38.011 v -64"
         style="fill:#231f20;fill-opacity:1;fill-rule:nonzero;stroke:none"
         id="path76"
         inkscape:connector-curvature="0" /><path
         d="m 9516.55,612.051 c 0,56 0,77 -4,114 h 63 v -98.012 h 2 c 23,57.012 66,110.012 131.01,110.012 15,0 33.01,-3 44,-5.992 v -66.008 c -12.99,3.988 -30,6 -46,6 -100.01,0 -127.01,-112.012 -127.01,-204.02 V 216.02 h -63 v 396.031"
         style="fill:#231f20;fill-opacity:1;fill-rule:nonzero;stroke:none"
         id="path78"
         inkscape:connector-curvature="0" /><path
         d="m 9810.54,290.02 c 38.01,-19 84.01,-32 133.01,-32 60.05,0 113.05,33 113.05,91.011 0,121 -245.05,102 -245.05,250.02 0,101 82,139 166,139 27.05,0 81.05,-5.992 126.05,-23 l -6,-55.012 c -33,15 -78,24.012 -113.04,24.012 -65,0 -110.01,-20 -110.01,-85 0,-95.012 251.05,-83.012 251.05,-250.02 0,-108.011 -101,-145.011 -178.05,-145.011 -49,0 -98,6 -143,24 l 5.99,62"
         style="fill:#231f20;fill-opacity:1;fill-rule:nonzero;stroke:none"
         id="path80"
         inkscape:connector-curvature="0" /><path
         d="m 10238.5,726.051 h 63 V 216.02 h -63 z m 63,136.008 h -63 v 84.011 h 63 v -84.011"
         style="fill:#231f20;fill-opacity:1;fill-rule:nonzero;stroke:none"
         id="path82"
         inkscape:connector-curvature="0" /><path
         d="m 10680.5,672.051 h -116 v -330.02 c 0,-46 17,-84.011 68,-84.011 24,0 40,5 58,12 l 4,-52 c -15,-6 -46,-14 -77,-14 -112,0 -116,77 -116,170.011 v 298.02 h -100 v 54 h 100 v 123.008 l 63,22 V 726.051 h 116 v -54"
         style="fill:#231f20;fill-opacity:1;fill-rule:nonzero;stroke:none"
         id="path84"
         inkscape:connector-curvature="0" /><path
         d="M 10945.5,140.012 C 10921.5,70.0117 10885.5,0 10814.5,0 c -23,0 -47,3 -68,8 l 6,54.0117 c 12,-4 24,-8 47,-8 54,0 72,45 92,111.0003 l 13,45.008 -181,516.031 h 69 l 143,-426.031 -1,1.011 h 2 l 147,425.02 h 66 l -204,-586.039"
         style="fill:#231f20;fill-opacity:1;fill-rule:nonzero;stroke:none"
         id="path86"
         inkscape:connector-curvature="0" /><path
         d="m 11714.5,258.02 c 110,0 169,95.011 169,213.019 0,118.012 -59,213.012 -169,213.012 -110,0 -169,-95 -169,-213.012 0,-118.008 59,-213.019 169,-213.019 z m 0,480.031 c 165,0 238,-128.012 238,-267.012 0,-139.008 -73,-267.019 -238,-267.019 -165,0 -238,128.011 -238,267.019 0,139 73,267.012 238,267.012"
         style="fill:#231f20;fill-opacity:1;fill-rule:nonzero;stroke:none"
         id="path88"
         inkscape:connector-curvature="0" /><path
         d="m 12114.5,672.051 h -103 v 54 h 103 v 37 c 0,107.008 4,215.019 135,215.019 20,0 47,-3.011 59,-10.011 l -4,-55 c -13,7 -32,11.011 -50,11.011 -86,0 -77,-93.011 -77,-154.019 v -44 h 115 v -54 h -115 V 216.02 h -63 v 456.031"
         style="fill:#231f20;fill-opacity:1;fill-rule:nonzero;stroke:none"
         id="path90"
         inkscape:connector-curvature="0" /><path
         d="m 12936.5,848.059 -152,-385.028 h 303 z m -34,66.011 h 78 l 277,-698.05 h -72 l -75,187.011 h -352 l -75,-187.011 h -67 l 286,698.05"
         style="fill:#231f20;fill-opacity:1;fill-rule:nonzero;stroke:none"
         id="path92"
         inkscape:connector-curvature="0" /><path
         d="m 13557.5,684.051 c -112,0 -151,-120.012 -151,-213.012 0,-93.008 39,-213.019 151,-213.019 120,0 151,114.011 151,213.019 0,99 -31,213.012 -151,213.012 z m -214,42 h 63 l -4,-93.012 h 2 c 16,28.012 55,105.012 163,105.012 150,0 210,-112 210,-267.012 0,-151.019 -70,-267.019 -210,-267.019 -80,0 -128,33.011 -159,99 h -2 V 6.01172 h -63 V 726.051"
         style="fill:#231f20;fill-opacity:1;fill-rule:nonzero;stroke:none"
         id="path94"
         inkscape:connector-curvature="0" /><path
         d="m 14113.5,684.051 c -112,0 -151,-120.012 -151,-213.012 0,-93.008 39,-213.019 151,-213.019 120,0 151,114.011 151,213.019 0,99 -31,213.012 -151,213.012 z m -214,42 h 63 l -4,-93.012 h 2 c 16,28.012 55,105.012 163,105.012 150,0 210,-112 210,-267.012 0,-151.019 -70,-267.019 -210,-267.019 -80,0 -128,33.011 -159,99 h -2 V 6.01172 h -63 V 726.051"
         style="fill:#231f20;fill-opacity:1;fill-rule:nonzero;stroke:none"
         id="path96"
         inkscape:connector-curvature="0" /><path
         d="m 14461.5,966.07 h 63 V 216.02 h -63 v 750.05"
         style="fill:#231f20;fill-opacity:1;fill-rule:nonzero;stroke:none"
         id="path98"
         inkscape:connector-curvature="0" /><path
         d="m 14683.5,726.051 h 63 V 216.02 h -63 z m 63,136.008 h -63 v 84.011 h 63 v -84.011"
         style="fill:#231f20;fill-opacity:1;fill-rule:nonzero;stroke:none"
         id="path100"
         inkscape:connector-curvature="0" /><path
         d="m 15216.5,507.039 c 0,89 -36,177.012 -130,177.012 -93,0 -150,-93.012 -150,-177.012 z m 31,-275.008 c -44,-18.011 -101,-28.011 -148,-28.011 -169,0 -232,114 -232,267.019 0,156.012 86,267.012 215,267.012 144,0 203,-116 203,-253.02 v -32 h -349 c 0,-108.011 58,-195.011 168,-195.011 46,0 113,19.011 143,38.011 v -64"
         style="fill:#231f20;fill-opacity:1;fill-rule:nonzero;stroke:none"
         id="path102"
         inkscape:connector-curvature="0" /><path
         d="m 15595.5,258.02 c 112,0 151,120.011 151,213.019 0,93 -39,213.012 -151,213.012 -120,0 -151,-114.012 -151,-213.012 0,-99.008 31,-213.019 151,-213.019 z m 214,-42 h -63 v 81.011 h -2 c -34,-65 -86,-93.011 -159,-93.011 -140,0 -210,116 -210,267.019 0,155.012 60,267.012 210,267.012 100,0 150,-73.012 159,-98.012 h 2 V 966.07 h 63 V 216.02"
         style="fill:#231f20;fill-opacity:1;fill-rule:nonzero;stroke:none"
         id="path104"
         inkscape:connector-curvature="0" /><g
         id="g106"
         transform="scale(1.01886)"><path
           d="m 15926.9,299.372 c 40.4,-25.507 87.5,-40.241 151.3,-40.241 84.4,0 154.1,43.185 154.1,140.371 0,134.464 -314.1,151.149 -314.1,330.78 0,109.926 96.2,178.63 216.9,178.63 33.4,0 87.4,-4.907 134.5,-22.574 l -10.8,-61.841 c -30.4,16.693 -78.5,25.526 -124.7,25.526 -70.6,0 -148.2,-29.445 -148.2,-117.786 0,-137.419 314.1,-138.401 314.1,-338.631 0,-138.401 -118.8,-193.364 -224.8,-193.364 -66.7,0 -118.8,13.741 -155.1,29.444 l 6.8,69.686"
           style="fill:#231f20;fill-opacity:1;fill-rule:nonzero;stroke:none"
           id="path108"
           inkscape:connector-curvature="0" /></g><g
         id="g110"
         transform="scale(1.04764)"><path
           d="m 16295.2,628.128 c -32.4,14.318 -71.6,24.818 -104,24.818 -117.4,0 -183.3,-84.964 -183.3,-203.326 0,-110.744 66.8,-203.333 176.6,-203.333 38.2,0 73.5,8.602 109.8,21.954 l 5.7,-56.317 c -41,-14.318 -79.2,-17.182 -125,-17.182 -156.6,0 -232.9,119.328 -232.9,254.878 0,149.861 96.4,254.87 240.5,254.87 58.2,0 100.2,-13.363 117.4,-19.09 l -4.8,-57.272"
           style="fill:#231f20;fill-opacity:1;fill-rule:nonzero;stroke:none"
           id="path112"
           inkscape:connector-curvature="0" /></g><g
         id="g114"
         transform="scale(1.05806)"><path
           d="m 16240.5,686.208 h 59.5 V 204.165 h -59.5 z m 59.5,128.545 h -59.5 v 79.401 h 59.5 v -79.401"
           style="fill:#231f20;fill-opacity:1;fill-rule:nonzero;stroke:none"
           id="path116"
           inkscape:connector-curvature="0" /></g><g
         id="g118"
         transform="scale(1.09113)"><path
           d="m 16236.8,464.692 c 0,81.567 -33,162.228 -119.2,162.228 -85.2,0 -137.5,-85.243 -137.5,-162.228 z m 28.4,-252.04 c -40.4,-16.507 -92.6,-25.672 -135.7,-25.672 -154.9,0 -212.6,104.479 -212.6,244.719 0,142.982 78.8,244.711 197.1,244.711 131.9,0 186,-106.312 186,-231.888 v -29.327 h -319.9 c 0,-98.991 53.2,-178.725 154,-178.725 42.2,0 103.6,17.424 131.1,34.837 v -58.655"
           style="fill:#231f20;fill-opacity:1;fill-rule:nonzero;stroke:none"
           id="path120"
           inkscape:connector-curvature="0" /></g><g
         id="g122"
         transform="scale(1.12291)"><path
           d="m 15945.6,539.705 c 0,34.731 0,70.363 -3.6,106.876 h 54.3 v -81.05 h 1.8 c 18.7,40.975 52.5,91.736 146.9,91.736 112.3,0 155,-74.805 155,-174.557 V 192.375 h -56.1 v 276.086 c 0,85.503 -30.3,140.717 -107.8,140.717 -102.4,0 -134.4,-89.956 -134.4,-165.652 V 192.375 h -56.1 v 347.33"
           style="fill:#231f20;fill-opacity:1;fill-rule:nonzero;stroke:none"
           id="path124"
           inkscape:connector-curvature="0" /></g><g
         id="g126"
         transform="scale(1.15328)"><path
           d="m 16295.7,570.593 c -29.5,13.006 -65.1,22.544 -94.6,22.544 -106.6,0 -166.4,-77.182 -166.4,-184.701 0,-100.6 60.7,-184.709 160.4,-184.709 34.7,0 66.7,7.814 99.7,19.944 l 5.2,-51.159 c -37.3,-13.006 -72,-15.608 -113.6,-15.608 -142.2,0 -211.6,108.397 -211.6,231.532 0,136.134 87.6,231.524 218.5,231.524 52.9,0 91.1,-12.139 106.7,-17.342 l -4.3,-52.025"
           style="fill:#231f20;fill-opacity:1;fill-rule:nonzero;stroke:none"
           id="path128"
           inkscape:connector-curvature="0" /></g><g
         id="g130"
         transform="scale(1.18315)"><path
           d="m 16241.7,428.549 c 0,75.223 -30.4,149.61 -109.9,149.61 -78.6,0 -126.8,-78.613 -126.8,-149.61 z m 26.2,-232.436 c -37.2,-15.224 -85.4,-23.676 -125.1,-23.676 -142.8,0 -196.1,96.353 -196.1,225.685 0,131.861 72.7,225.678 181.7,225.678 121.7,0 171.6,-98.043 171.6,-213.852 v -27.047 h -295 c 0,-91.291 49,-164.823 142,-164.823 38.9,0 95.5,16.068 120.9,32.127 v -54.092"
           style="fill:#231f20;fill-opacity:1;fill-rule:nonzero;stroke:none"
           id="path132"
           inkscape:connector-curvature="0" /></g><g
         id="g134"
         transform="scale(1.20742)"><path
           d="m 16039.4,240.197 c 31.5,-15.736 69.6,-26.503 110.2,-26.503 49.7,0 93.6,27.331 93.6,75.377 0,100.214 -202.9,84.478 -202.9,207.069 0,83.649 67.9,115.121 137.5,115.121 22.3,0 67,-4.963 104.3,-19.049 l -5,-45.561 c -27.3,12.423 -64.6,19.887 -93.5,19.887 -53.9,0 -91.1,-16.565 -91.1,-70.398 0,-78.69 207.8,-68.751 207.8,-207.069 0,-89.456 -83.6,-120.1 -147.4,-120.1 -40.6,0 -81.2,4.969 -118.4,19.877 l 4.9,51.349"
           style="fill:#231f20;fill-opacity:1;fill-rule:nonzero;stroke:none"
           id="path136"
           inkscape:connector-curvature="0" /></g><path
         d="m 1056.44,1864.88 c -343.045,0 -621.147,278.1 -621.147,621.15 0,343.05 278.102,621.15 621.147,621.15 343.05,0 621.15,-278.1 621.15,-621.15 0,-343.05 -278.1,-621.15 -621.15,-621.15 z m -3.9,1665.72 C 471.238,3530.6 0,3059.36 0,2478.05 0,1896.75 471.238,1425.51 1052.54,1425.51 c 581.31,0 1052.56,471.24 1052.56,1052.54 0,581.31 -471.25,1052.55 -1052.56,1052.55"
         style="fill:#00adef;fill-opacity:1;fill-rule:nonzero;stroke:none"
         id="path138"
         inkscape:connector-curvature="0" /></g></g></svg>