<?xml version="1.0" encoding="UTF-8" standalone="no"?>
<!-- Created with Inkscape (http://www.inkscape.org/) -->

<svg
   xmlns:dc="http://purl.org/dc/elements/1.1/"
   xmlns:cc="http://creativecommons.org/ns#"
   xmlns:rdf="http://www.w3.org/1999/02/22-rdf-syntax-ns#"
   xmlns:svg="http://www.w3.org/2000/svg"
   xmlns="http://www.w3.org/2000/svg"
   xmlns:sodipodi="http://sodipodi.sourceforge.net/DTD/sodipodi-0.dtd"
   xmlns:inkscape="http://www.inkscape.org/namespaces/inkscape"
   width="90mm"
   height="53mm"
   viewBox="0 0 90 53"
   version="1.1"
   id="svg8"
   inkscape:version="0.92.5 (2060ec1f9f, 2020-04-08)"
   sodipodi:docname="logos.svg">
  <defs
     id="defs2">
    <inkscape:path-effect
       effect="bspline"
       id="path-effect903"
       is_visible="true"
       weight="33.333333"
       steps="2"
       helper_size="0"
       apply_no_weight="true"
       apply_with_weight="true"
       only_selected="false" />
    <inkscape:path-effect
       effect="bspline"
       id="path-effect899"
       is_visible="true"
       weight="33.333333"
       steps="2"
       helper_size="0"
       apply_no_weight="true"
       apply_with_weight="true"
       only_selected="false" />
  </defs>
  <sodipodi:namedview
     id="base"
     pagecolor="#ffffff"
     bordercolor="#666666"
     borderopacity="1.0"
     inkscape:pageopacity="0.0"
     inkscape:pageshadow="2"
     inkscape:zoom="2"
     inkscape:cx="91.56347"
     inkscape:cy="106.89539"
     inkscape:document-units="mm"
     inkscape:current-layer="layer1"
     showgrid="false"
     inkscape:window-width="2556"
     inkscape:window-height="1404"
     inkscape:window-x="1920"
     inkscape:window-y="16"
     inkscape:window-maximized="0" />
  <metadata
     id="metadata5">
    <rdf:RDF>
      <cc:Work
         rdf:about="">
        <dc:format>image/svg+xml</dc:format>
        <dc:type
           rdf:resource="http://purl.org/dc/dcmitype/StillImage" />
        <dc:title />
      </cc:Work>
    </rdf:RDF>
  </metadata>
  <g
     inkscape:label="Layer 1"
     inkscape:groupmode="layer"
     id="layer1"
     transform="translate(0,-244)">
    <path
       style="fill:#ffffff;stroke:#000000;stroke-width:0.36023697;stroke-miterlimit:4;stroke-dasharray:none;stroke-opacity:1"
       d="m 65.673359,245.93379 h 10.158109 c 0.706721,0 1.27567,1.05138 1.27567,2.35734 v 1.26598 c 0,1.30597 -0.568949,2.35735 -1.27567,2.35735 h -3.803382 c 4.433469,7.45154 5.821549,6.67292 -2.598586,0 h -3.756141 c -0.706721,0 -1.27567,-1.05138 -1.27567,-2.35735 v -1.26598 c 0,-1.30596 0.568949,-2.35734 1.27567,-2.35734 z"
       id="rect849"
       inkscape:connector-curvature="0"
       sodipodi:nodetypes="sssssccssss" />
    <rect
       style="opacity:1;fill:#cccccc;fill-opacity:1;stroke:#000000;stroke-width:1;stroke-miterlimit:4;stroke-dasharray:none;stroke-dashoffset:0;stroke-opacity:1"
       id="rect815"
       width="31.938988"
       height="20.032738"
       x="1.5"
       y="263.78961" />
    <circle
       style="opacity:1;fill:#ce4953;fill-opacity:1;stroke:#000000;stroke-width:1;stroke-miterlimit:4;stroke-dasharray:none;stroke-dashoffset:0;stroke-opacity:1"
       id="path838"
       cx="9.1433964"
       cy="289.07602"
       r="5.3119817" />
    <circle
       style="opacity:1;fill:#ce4953;fill-opacity:1;stroke:#000000;stroke-width:1;stroke-miterlimit:4;stroke-dasharray:none;stroke-dashoffset:0;stroke-opacity:1"
       id="path838-6"
       cx="24.544804"
       cy="289.17624"
       r="5.3119822" />
    <path
       style="fill:none;stroke:#000000;stroke-width:1;stroke-linecap:butt;stroke-linejoin:miter;stroke-miterlimit:4;stroke-dasharray:none;stroke-opacity:1"
       d="m 55.312736,257.59929 6.101839,-5.80117"
       id="path857"
       inkscape:connector-curvature="0" />
    <path
       style="fill:none;stroke:#000000;stroke-width:1;stroke-linecap:butt;stroke-linejoin:miter;stroke-miterlimit:4;stroke-dasharray:none;stroke-opacity:1"
       d="m 55.312736,257.59929 3.508711,3.25419"
       id="path874-5"
       inkscape:connector-curvature="0" />
    <path
       style="fill:none;stroke:#000000;stroke-width:1;stroke-linecap:butt;stroke-linejoin:miter;stroke-miterlimit:4;stroke-dasharray:none;stroke-opacity:1"
       d="M 17.563987,263.60062 30.037202,252.8283 v 0"
       id="path891"
       inkscape:connector-curvature="0" />
    <circle
       style="opacity:1;fill:#ce4953;fill-opacity:1;stroke:#000000;stroke-width:1;stroke-miterlimit:4;stroke-dasharray:none;stroke-dashoffset:0;stroke-opacity:1"
       id="path896"
       cx="31.549109"
       cy="251.22191"
       r="2.0788691" />
    <path
       style="fill:none;stroke:#000000;stroke-width:1;stroke-linecap:butt;stroke-linejoin:miter;stroke-miterlimit:4;stroke-dasharray:none;stroke-opacity:1"
       d="M 33.438987,250.18247 48.46354,246.78068"
       id="path898"
       inkscape:connector-curvature="0" />
    <circle
       style="opacity:1;fill:#ce4953;fill-opacity:1;stroke:#000000;stroke-width:1;stroke-miterlimit:4;stroke-dasharray:none;stroke-dashoffset:0;stroke-opacity:1"
       id="path896-3"
       cx="49.975449"
       cy="247.06416"
       r="2.0788691" />
    <path
       style="fill:none;stroke:#000000;stroke-width:1;stroke-linecap:butt;stroke-linejoin:miter;stroke-miterlimit:4;stroke-dasharray:none;stroke-opacity:1"
       d="m 51.865327,248.48157 6.709077,6.3311"
       id="path919"
       inkscape:connector-curvature="0" />
    <path
       style="fill:none;stroke:#000000;stroke-width:1;stroke-linecap:butt;stroke-linejoin:miter;stroke-miterlimit:4;stroke-dasharray:none;stroke-opacity:1"
       d="m 61.414575,251.79812 3.508711,3.25419"
       id="path874-5-5"
       inkscape:connector-curvature="0" />
    <circle
       style="opacity:1;fill:#b3b3b3;fill-opacity:1;stroke:#000000;stroke-width:0.81772077;stroke-miterlimit:4;stroke-dasharray:none;stroke-dashoffset:0;stroke-opacity:1"
       id="path936"
       cx="83.3731"
       cy="255.09059"
       r="5.9497705" />
    <path
       style="fill:none;stroke:#000000;stroke-width:1;stroke-linecap:butt;stroke-linejoin:miter;stroke-miterlimit:4;stroke-dasharray:none;stroke-opacity:1"
       d="m 83.373089,261.13821 -0.0958,28.63937"
       id="path938"
       inkscape:connector-curvature="0" />
    <path
       style="fill:none;stroke:#000000;stroke-width:1;stroke-linecap:butt;stroke-linejoin:miter;stroke-miterlimit:4;stroke-dasharray:none;stroke-opacity:1"
       d="m 78.065526,295.65751 5.211763,-5.87994 0.93544,6.14721"
       id="path942"
       inkscape:connector-curvature="0" />
    <path
       style="fill:none;stroke:#000000;stroke-width:1;stroke-linecap:butt;stroke-linejoin:miter;stroke-miterlimit:4;stroke-dasharray:none;stroke-opacity:1"
       d="m 83.010009,268.26238 -10.022605,4.40995"
       id="path948"
       inkscape:connector-curvature="0" />
    <path
       style="fill:none;stroke:#000000;stroke-width:1;stroke-linecap:butt;stroke-linejoin:miter;stroke-miterlimit:4;stroke-dasharray:none;stroke-opacity:1"
       d="m 83.410915,271.20235 -10.289876,4.81086"
       id="path952"
       inkscape:connector-curvature="0" />
    <rect
       style="opacity:1;fill:#ce4953;fill-opacity:1;stroke:#000000;stroke-width:1;stroke-miterlimit:4;stroke-dasharray:none;stroke-dashoffset:0;stroke-opacity:1"
       id="rect954"
       width="7.8844509"
       height="4.543582"
       x="-107.50561"
       y="271.681"
       transform="rotate(-33.592049)" />
    <path
       style="fill:none;stroke:#000000;stroke-width:0.12;stroke-linecap:butt;stroke-linejoin:miter;stroke-opacity:1;stroke-miterlimit:4;stroke-dasharray:none"
       d="m 60.870634,267.13263 c 0,0.75176 0.01622,-0.21167 -0.03341,0.33409 -0.0071,0.0776 0,0.1559 0,0.23386 0,0.17818 0,0.35636 0,0.53454 0,0.37863 0,0.75726 0,1.13589 0,1.33635 0,2.6727 0,4.00905 0,0.38976 0,0.77953 0,1.1693 0,0.14477 0,0.28954 0,0.43431 0,0.0557 0,0.11136 0,0.16705 0,0.0445 -0.01003,0.0902 0,0.13363 0.02376,0.10294 0.06682,0.20045 0.100226,0.30068"
       id="path855"
       inkscape:connector-curvature="0" />
    <path
       style="fill:none;stroke:#000000;stroke-width:0.1;stroke-linecap:butt;stroke-linejoin:miter;stroke-opacity:1;stroke-miterlimit:4;stroke-dasharray:none"
       d="m 61.939712,261.85406 c -0.01114,0.0668 -0.02667,0.13305 -0.03341,0.20045 -0.0044,0.0443 0,0.0891 0,0.13363 0,0.13364 0,0.26727 0,0.40091 0,0.20045 -0.0095,0.40113 0,0.60135 0.0058,0.12287 0.0232,0.24492 0.03341,0.3675 0.01206,0.1447 0.02228,0.28954 0.03341,0.43431 0.04625,0.60124 0.02376,0.28944 0.06682,0.93545 0.01114,0.16704 0.01675,0.33454 0.03341,0.50113 0.01678,0.16768 0.04948,0.3335 0.06682,0.50113 0.0089,0.0862 0.06201,0.89922 0.06681,0.96885 0.01074,0.15593 0.0155,0.31245 0.03341,0.46772 0.01553,0.13459 0.05002,0.26647 0.06682,0.40091 0.07481,0.59849 0.0049,0.19782 0.03341,0.7684 0.0096,0.1908 0.05098,0.37788 0.06682,0.56794 0.01482,0.17791 0.02228,0.35636 0.03341,0.53454"
       id="path872"
       inkscape:connector-curvature="0" />
    <path
       style="fill:none;stroke:#000000;stroke-width:0.18;stroke-linecap:butt;stroke-linejoin:miter;stroke-opacity:1;stroke-miterlimit:4;stroke-dasharray:none"
       d="m 64.812859,269.90555 c 0,1.51453 0,3.02906 0,4.54358 0,0.40091 0,0.80181 0,1.20272 0,0.17818 0.0059,0.35645 0,0.53453 -0.0052,0.15622 -0.02278,0.31178 -0.03341,0.46773 -0.02278,0.33405 -0.04454,0.66817 -0.06682,1.00226"
       id="path876"
       inkscape:connector-curvature="0" />
    <path
       style="fill:none;stroke:#000000;stroke-width:0.12;stroke-linecap:butt;stroke-linejoin:miter;stroke-opacity:1;stroke-miterlimit:4;stroke-dasharray:none"
       d="m 66.783973,266.2306 c 0,0.82545 -0.01529,-0.23216 0.03341,0.4009 0.0068,0.0888 -0.0056,0.17835 0,0.26727 0.0056,0.0896 0.02869,0.17761 0.03341,0.26727 0.01289,0.24466 -0.01064,0.49022 0,0.73499 0.0058,0.13397 0.02805,0.26691 0.03341,0.4009 0.0058,0.14466 0,0.28955 0,0.43432 0,0.14477 0,0.28954 0,0.43431 0,0.27841 0,0.55681 0,0.83522 0,0.1225 0,0.24499 0,0.36749 0,0.10023 0.01106,0.20107 0,0.30068 -0.02244,0.20197 -0.06682,0.4009 -0.100224,0.60136"
       id="path880"
       inkscape:connector-curvature="0" />
    <path
       style="fill:#ffffff;fill-opacity:1;stroke:#000000;stroke-width:0.265;stroke-miterlimit:4;stroke-dasharray:none;stroke-opacity:1"
       id="path884"
       ry="5.3861609"
       rx="9.260417"
       cy="238.50818"
       cx="65.767853" />
    <text
       xml:space="preserve"
       style="font-style:normal;font-weight:normal;font-size:10.58333302px;line-height:1.25;font-family:sans-serif;letter-spacing:0px;word-spacing:0px;fill:#000000;fill-opacity:1;stroke:none;stroke-width:0.26458332"
       x="64.510658"
       y="250.33752"
       id="text907"><tspan
         sodipodi:role="line"
         id="tspan905"
         x="64.510658"
         y="250.33752"
         style="font-style:normal;font-variant:normal;font-weight:normal;font-stretch:normal;font-size:4.93888903px;font-family:'Latin Modern Sans';-inkscape-font-specification:'Latin Modern Sans';stroke-width:0.26458332">Oops!</tspan></text>
  </g>
</svg>
